<?xml version="1.0" encoding="UTF-8"?>
<svg id="Layer_1" data-name="Layer 1" xmlns="http://www.w3.org/2000/svg" viewBox="0 0 16.38 16.34">
  <defs>
    <style>
      .cls-1 {
        fill: #b3a7a1;
      }

      .cls-2 {
        fill: none;
        opacity: 0;
        stroke: #f1f2f2;
        stroke-miterlimit: 10;
        stroke-width: .15px;
      }

      .cls-3 {
        fill: #68488e;
      }
    </style>
  </defs>
  <rect class="cls-2" width="16.38" height="16.34"/>
  <g>
    <path class="cls-3" d="M10.99,5.73c-.13.24-.3.43-.5.6-.56-.45-1.27-.86-2.18-.92-2.07-.13-3.69,1.48-3.7,3.46,0,1.97,1.52,3.39,3.3,3.49,1.03.06,1.91-.37,2.49-.89.75-.68,1.36-1.76,1.1-3.3.23-.07.53-.18.81-.1.33,1.76-.39,3.11-1.26,3.96-.71.69-1.76,1.17-2.94,1.18-2.24.03-4.16-1.7-4.33-3.88-.12-1.57.44-2.67,1.26-3.49.68-.68,1.6-1.18,2.75-1.26,1.46-.1,2.43.47,3.17,1.15"/>
    <path class="cls-1" d="M13.62,4.65c-.06.38-.23.88-.31,1.31.38.18.87.25,1.28.39-.42.25-.94.53-1.44.81-.16.09-.34.24-.47.26-.16.03-.35-.05-.5-.05-.68-.01-1.18.32-1.68.6-.5.28-.97.57-1.47.81,0,.64-.51,1.16-1.23.94-.99-.3-.72-1.87.37-1.81.19,0,.33.07.47.18,1.07-.75,2.6-1.04,3.07-2.39.63-.36,1.27-.72,1.91-1.08"/>
    <path class="cls-3" d="M9.66,6.78c-.26.17-.55.31-.81.47-1.91-.78-3.35,1.63-1.97,2.94,1.02.96,2.86.4,2.99-1.1.29-.14.54-.32.84-.45.09,1.71-1.12,2.98-2.81,2.86-1.28-.09-2.41-1.15-2.41-2.6,0-1.38.97-2.5,2.36-2.62.81-.07,1.33.19,1.81.5"/>
  </g>
</svg>