<?xml version="1.0" encoding="UTF-8"?>
<svg id="Layer_1" data-name="Layer 1" xmlns="http://www.w3.org/2000/svg" viewBox="0 0 16.38 16.34">
  <defs>
    <style>
      .cls-1 {
        fill: #f1f2f2;
      }

      .cls-2 {
        fill: none;
        opacity: 0;
        stroke: #f1f2f2;
        stroke-miterlimit: 10;
        stroke-width: .15px;
      }
    </style>
  </defs>
  <g>
    <path class="cls-1" d="M7.9,3.4h.44s.14-.04.14.05v.94c0,.06.2.28.26.31.15.09.37.09.53.02.12-.05.33-.3.33-.42v-.89h.44s.14-.04.14.05v.91s.06.14.08.17c.22.34.77.33.97-.03.02-.03.08-.15.08-.16v-.92h.44s.14-.04.14.05v.91c0,.14.26.36.39.4.23.05.5-.02.63-.22.02-.03.1-.19.1-.21v-.8c.31.08.46.44.49.74v8.69c-.04.45-.28.78-.74.83H3.61c-.35-.03-.68-.33-.71-.68V4.11c.03-.26.24-.5.46-.62v.77c0,.09.1.27.16.34.17.17.48.22.7.1.06-.04.26-.25.26-.31v-.98h.47s.04-.04.08-.02c.11.07.04.75.06.91.06.63,1.07.65,1.12-.09,0-.1-.03-.17-.02-.24,0-.16.06-.35,0-.52l.04-.04.48-.03.06.05c.03.21.01.42.02.62,0,.05-.03.1-.03.15.02.55.72.78,1.04.32.03-.04.11-.22.11-.26v-.86ZM3.32,6.06v7.01c0,.12.24.32.38.29l9.08-.02c.11,0,.27-.25.27-.33v-6.91c0-.09-.12-.05-.14-.05H3.32Z"/>
    <path class="cls-1" d="M5.59,2.56c.26-.02.44.19.46.43.03.27.03,1.04,0,1.3-.08.46-.79.5-.84-.11-.02-.28-.04-1.01,0-1.27.03-.18.2-.33.38-.35Z"/>
    <path class="cls-1" d="M9.01,2.56c.23,0,.41.17.44.4.02.25.04,1.14,0,1.36-.08.38-.66.42-.8.06-.07-.18-.06-1.12-.04-1.35s.15-.45.41-.46Z"/>
    <path class="cls-1" d="M3.8,2.59c.28-.05.52.07.55.37.03.23.03,1.14-.01,1.35-.09.44-.78.43-.84-.08-.03-.27-.04-1.08,0-1.33.02-.14.15-.29.29-.31Z"/>
    <path class="cls-1" d="M7.2,2.59c.26-.05.52.06.55.34.03.24.03,1.16-.01,1.38-.09.45-.78.44-.83-.11-.03-.27-.04-1.04,0-1.29.02-.15.14-.29.29-.32Z"/>
    <path class="cls-1" d="M12.12,2.68c.23-.23.66-.11.72.22.04.24.04,1.17,0,1.41-.05.29-.45.4-.68.24s-.13-.82-.13-1.08-.1-.59.1-.79Z"/>
    <path class="cls-1" d="M10.71,2.56c.18,0,.39.13.43.31.04.22.03,1.11,0,1.36-.04.47-.67.54-.81.14-.08-.21.03-.63,0-.87,0-.34-.12-.93.38-.94Z"/>
    <path class="cls-1" d="M7.95,6.86c2.24-.19,3.86,2.19,2.74,4.19-.89,1.59-3.07,1.93-4.43.72-1.88-1.66-.78-4.71,1.69-4.91ZM7.95,7.28c-1.67.16-2.72,1.95-1.94,3.47.86,1.69,3.35,1.76,4.29.11s-.41-3.77-2.34-3.59Z"/>
    <path class="cls-1" d="M9.47,8.43c.2-.04.38.18.26.36-.53.57-1.01,1.22-1.54,1.79-.17.18-.35.45-.61.21l-.93-.98c-.1-.2.07-.41.28-.34.2.06.65.71.86.83l1.68-1.87Z"/>
  </g>
  <rect class="cls-2" width="16.38" height="16.34"/>
</svg>