<?xml version="1.0" encoding="UTF-8"?>
<svg id="Layer_1" data-name="Layer 1" xmlns="http://www.w3.org/2000/svg" viewBox="0 0 16.38 16.34">
  <defs>
    <style>
      .cls-1 {
        fill: #f1f2f2;
      }

      .cls-2 {
        fill: none;
        opacity: 0;
        stroke: #f1f2f2;
        stroke-miterlimit: 10;
        stroke-width: .15px;
      }
    </style>
  </defs>
  <g>
    <path class="cls-1" d="M5.05,3.37v.89s.1.24.12.27c.25.34.78.27.97-.09.08-.32.03-.69.04-1.02l.04-.05h.53v.86c0,.18.2.42.36.48.28.11.69-.04.75-.34.02-.1.03-.39.04-.51s-.02-.2,0-.36c0-.02-.04-.14.02-.14h.52l.05.05v.94s.1.19.12.21c.26.32.79.23.95-.15,0-.02.05-.18.05-.19v-.86h.53l.05.05v.94s.1.19.12.21c.26.32.85.21.96-.16,0-.02.04-.19.04-.2v-.83h.53l.05.05v.91s.11.23.15.27c.21.22.57.22.79.02.05-.04.18-.24.18-.29v-.83c.22.07.35.28.44.48.1,2.97.01,5.97.05,8.95,0,.48-.35.85-.83.86H3.67c-.39-.03-.74-.31-.77-.71V4.17c.02-.28.2-.57.46-.68v.77c0,.11.15.32.24.39.41.28.88-.01.9-.49,0-.07-.03-.13-.03-.2.01-.19.06-.39.03-.59h.55ZM3.32,6.04v7.04c0,.12.27.32.41.29l9.02-.02c.11-.03.3-.23.3-.33v-6.94l-.05-.05H3.32Z"/>
    <path class="cls-1" d="M9.34,2.68c.06.06.09.16.1.25.03.27.03,1.07,0,1.33-.07.47-.75.49-.84,0-.04-.23-.04-1.08,0-1.32.05-.35.5-.52.74-.25Z"/>
    <path class="cls-1" d="M5.56,2.56c.29-.04.47.15.49.43s.03,1.08-.02,1.31c-.11.46-.78.42-.83-.1-.03-.27-.03-1.04,0-1.3.03-.18.17-.32.35-.35Z"/>
    <path class="cls-1" d="M10.65,2.56c.27-.05.47.14.49.4s.04,1.13,0,1.36c-.08.39-.71.41-.82-.01-.05-.18-.05-1.19-.01-1.4.03-.17.18-.32.35-.35Z"/>
    <path class="cls-1" d="M7.22,2.56c.28-.06.5.13.52.4s.04,1.08,0,1.33c-.08.46-.78.45-.84-.08-.03-.26-.03-1.05,0-1.3.03-.15.17-.32.32-.35Z"/>
    <path class="cls-1" d="M3.86,2.56c.29-.04.47.16.49.43.02.25.04,1.07,0,1.3-.09.43-.78.46-.84-.05-.03-.27-.03-1.06,0-1.32.03-.19.15-.32.35-.35Z"/>
    <path class="cls-1" d="M12.74,2.68c.05.05.09.14.1.22.03.26.04,1.14,0,1.39-.06.36-.58.45-.77.14-.14-.23-.07-1.02-.05-1.32,0-.04-.03-.09-.02-.15.03-.37.48-.56.75-.28Z"/>
    <path class="cls-1" d="M10.18,7.35c.05-.05.18-.09.25-.1.36-.04,1.24-.04,1.61,0,.23.02.33.13.35.35.04.39.04,1.19,0,1.58-.02.19-.09.3-.29.32-.37.04-1.36.04-1.73,0-.17-.02-.24-.13-.26-.29-.04-.39-.04-1.28,0-1.67,0-.05.03-.15.07-.19Z"/>
    <path class="cls-1" d="M4.22,7.25c.3-.05,1.35-.04,1.66,0,.2.02.33.15.34.35.02.44.02,1.07,0,1.51,0,.18-.08.36-.28.38-.37.04-1.36.04-1.73,0-.19-.02-.27-.13-.29-.32-.04-.36-.03-1.17,0-1.54.02-.21.07-.33.29-.37Z"/>
    <path class="cls-1" d="M7.31,7.25c.3-.05,1.31-.04,1.63,0,.2.02.32.11.35.32.04.38.04,1.25,0,1.64-.01.16-.09.27-.26.29-.54.06-1.2-.05-1.76,0-.16-.04-.24-.12-.26-.29-.05-.54.04-1.15,0-1.7.02-.14.16-.23.29-.25Z"/>
    <path class="cls-1" d="M10.4,10.01c.06,0,.11.03.17.03.46,0,1.11-.05,1.55,0,.17.02.24.13.26.29.04.37.04,1.23,0,1.61,0,.1-.02.17-.09.24-.16.16-.27.07-.44.07-.42,0-.85,0-1.28,0-.06,0-.12.03-.18.03-.15,0-.27-.14-.29-.28-.06-.53.05-1.18,0-1.73.02-.13.17-.24.29-.25Z"/>
    <path class="cls-1" d="M8.74,10.01c.22,0,.46-.02.55.22-.03.54.06,1.16,0,1.69-.02.19-.11.34-.32.34-.47.01-.98-.03-1.46-.03-.16,0-.21.08-.38-.05-.08-.06-.11-.11-.12-.21-.04-.35-.04-1.35,0-1.7.02-.15.11-.24.26-.26.39-.05,1.05-.02,1.46-.02Z"/>
    <path class="cls-1" d="M4.16,10.04c.51-.09,1.24.05,1.78,0,.18.02.28.17.28.35,0,.05-.03.1-.03.15,0,.43.06,1.09,0,1.49-.02.14-.18.25-.32.25-.47.01-1.21.02-1.67-.02-.18-.02-.27-.11-.29-.29-.04-.33-.04-1.31,0-1.64.02-.14.09-.25.24-.28Z"/>
  </g>
  <rect class="cls-2" width="16.38" height="16.34"/>
</svg>