<?xml version="1.0" encoding="UTF-8"?>
<svg id="Layer_1" data-name="Layer 1" xmlns="http://www.w3.org/2000/svg" viewBox="0 0 16.38 16.34">
  <defs>
    <style>
      .cls-1 {
        fill: #f1f2f2;
      }

      .cls-2 {
        fill: none;
        opacity: 0;
        stroke: #f1f2f2;
        stroke-miterlimit: 10;
        stroke-width: .15px;
      }
    </style>
  </defs>
  <g>
    <path class="cls-1" d="M5.08,3.37v.95c0,.08.16.27.23.32.22.16.5.16.71-.02.04-.03.18-.24.18-.27v-.94l.05-.05h.53v.95s.08.16.09.18c.2.3.64.35.89.07.02-.03.14-.21.14-.22v-.94l.05-.05h.48l.05.05v.91s.09.17.11.19c.19.27.58.33.83.11.04-.03.18-.24.18-.27v-.94l.05-.05h.53v.89c0,.23.3.48.53.5.2.01.59-.2.59-.41v-.94l.05-.05h.53v.89c0,.2.26.45.45.49.25.05.6-.11.66-.37.04-.18,0-.58.01-.79,0-.03-.01-.09.04-.1.09-.02.46.46.44.59v8.99c-.03.4-.38.67-.77.71H3.67c-.4-.03-.74-.37-.77-.77V4.17c.05-.29.19-.5.41-.68l.08.05v.79c0,.22.38.45.59.44.19,0,.53-.25.53-.44v-.95h.58ZM13.05,6.04H3.32v6.98c0,.11.19.31.3.33h9.15c.09-.02.28-.19.28-.27v-7.04Z"/>
    <path class="cls-1" d="M7.26,2.56c.18-.03.41.06.48.23.07.19.07,1.11.05,1.35-.06.64-.79.6-.85.12-.03-.21-.03-1.23,0-1.42.03-.13.19-.26.32-.29Z"/>
    <path class="cls-1" d="M12.74,4.51c-.23.21-.67.09-.71-.22-.04-.24-.03-1.14,0-1.38.07-.47.75-.47.83,0,.04.25.04,1.06,0,1.33-.01.09-.06.21-.13.28Z"/>
    <path class="cls-1" d="M10.65,2.56c.27-.05.49.14.52.4.03.24.04,1.12,0,1.33-.09.44-.79.44-.84-.02-.03-.25-.03-1.15,0-1.39.02-.13.19-.29.32-.32Z"/>
    <path class="cls-1" d="M8.95,2.56c.3-.05.49.15.52.43.03.26.03,1.02,0,1.26-.08.48-.79.48-.84,0-.03-.25-.03-1.15,0-1.39.02-.14.18-.3.32-.32Z"/>
    <path class="cls-1" d="M3.86,2.56c.22-.04.47.11.49.34.03.25.03,1.18,0,1.42-.08.41-.78.44-.84-.14-.03-.31.02-.63.03-.94,0-.1-.05-.17-.03-.3.03-.18.17-.35.35-.38Z"/>
    <path class="cls-1" d="M5.34,2.68c.21-.23.65-.14.71.16.04.19.04,1.27,0,1.48-.06.38-.76.43-.84-.1-.03-.19-.01-.52,0-.72,0-.25-.04-.63.13-.82Z"/>
    <path class="cls-1" d="M10.71,8.98c.08.09.07.21.01.31l-1.09,1.04s0,.07,0,.11c.02.41.23.94.24,1.34,0,.21-.12.34-.34.27l-1.35-.68-1.28.66c-.2.09-.38.03-.39-.21l.25-1.46-1.1-1.08c-.08-.11-.06-.24.04-.32l1.6-.27.67-1.33c.07-.11.21-.14.32-.09.16.08.6,1.21.77,1.41.46.14,1.04.1,1.5.23.04.01.1.03.13.07ZM8.23,8.03c-.05-.01-.06.02-.09.05-.15.2-.37.89-.53,1.01-.05.03-.1.05-.16.06-.32.07-.71.08-1.04.12,0,.05,0,.07.03.11.13.2.57.48.74.71.03.04.06.07.07.11l-.18,1.19,1.11-.54,1.06.54.07-.05-.17-1.17.84-.85s-.07-.04-.11-.05c-.25-.06-.92-.07-1.09-.18-.18-.12-.43-.84-.56-1.06Z"/>
  </g>
  <rect class="cls-2" width="16.38" height="16.34"/>
</svg>