<?xml version="1.0" encoding="UTF-8"?>
<svg id="Layer_1" data-name="Layer 1" xmlns="http://www.w3.org/2000/svg" viewBox="0 0 16.38 16.34">
  <defs>
    <style>
      .cls-1 {
        fill: #f1f2f2;
      }

      .cls-2 {
        fill: none;
        opacity: 0;
        stroke: #f1f2f2;
        stroke-miterlimit: 10;
        stroke-width: .15px;
      }
    </style>
  </defs>
  <g>
    <path class="cls-1" d="M3.89,1.84c1.47.01,2.93.03,4.4.02.65,0,1.05-.07,1.59.38.97.81.53,1.96.65,3.03.02.18.11.3.26.4.97.67,3.15,1.12,3.34,2.44-.01,1.51.11,3.11.03,4.61-.06,1.01-.65,1.7-1.68,1.76-1.36.09-2.86-.03-4.23-.03-.91,0-1.82,0-2.74,0-1.34,0-2.94.31-3.28-1.43-.05-3.22-.04-6.45,0-9.67.11-.84.81-1.49,1.67-1.5ZM3.84,2.85c-.45.08-.6.42-.63.84v9.02c.01.18.06.36.18.5.27.32.68.23,1.05.24.9.03,1.81.03,2.71.03.5,0,1.08.04,1.57,0s.76-.33.8-.82V3.61c-.03-.44-.26-.71-.7-.77H3.84ZM10.75,6.82c-.13.01-.21.14-.22.26-.06.49,0,1.2,0,1.72,0,1.28.05,2.59,0,3.88,0,.22-.16.62.09.74.06.03.25.05.32.06.37.03,1.39.04,1.71-.06.23-.07.42-.28.47-.52-.01-1.41.12-2.95.03-4.35-.02-.29-.07-.52-.3-.71-.26-.21-1.5-.82-1.86-.95-.07-.03-.19-.07-.25-.07Z"/>
    <path class="cls-1" d="M7.34,3.94c.21-.02.64-.03.84,0,.29.05.5.3.53.58.03.25.04.92-.09,1.12-.22.36-.76.36-1.14.33-.43-.03-.76-.2-.8-.67-.02-.22-.02-.77.05-.96.1-.26.34-.38.6-.41Z"/>
    <path class="cls-1" d="M7.49,10.3c.39-.03.97-.06,1.16.37.09.21.09.85.06,1.1-.08.61-.74.61-1.22.58-.31-.02-.58-.09-.73-.39-.11-.23-.11-1.02,0-1.26.14-.31.44-.37.74-.4Z"/>
    <path class="cls-1" d="M4.65,3.94c.23-.02.73-.03.94.03.48.14.48.73.46,1.14-.03.53-.21.83-.77.87-.42.03-1.01.04-1.2-.42-.08-.21-.08-.98-.01-1.2.09-.29.3-.39.59-.42Z"/>
    <path class="cls-1" d="M4.7,10.3c.41-.04,1.04-.07,1.25.36.13.26.14,1.13-.02,1.38-.22.35-.8.33-1.16.31-.27-.02-.52-.07-.66-.33-.12-.23-.12-1.06-.04-1.31.1-.28.35-.38.63-.41Z"/>
    <path class="cls-1" d="M8.55,8.94c-.25.26-.85.24-1.19.21-.31-.03-.6-.23-.66-.55-.04-.23-.04-.88.05-1.09.13-.29.39-.37.68-.38.19,0,.57,0,.76.03.27.03.47.24.51.5.04.24.05.85-.02,1.07-.02.07-.08.16-.13.21Z"/>
    <path class="cls-1" d="M4.68,7.13c.19-.02.69,0,.87.02.52.09.52.76.5,1.17-.03.44-.15.78-.65.82-.44.04-1.17.08-1.34-.43-.06-.18-.06-.98,0-1.17.09-.3.33-.39.62-.42Z"/>
    <path class="cls-1" d="M11.56,8.42c.42-.03.85.04.89.54.06.75-.09,1.11-.9,1.05-.47-.03-.67-.22-.7-.7-.03-.54.14-.86.7-.89Z"/>
    <path class="cls-1" d="M11.46,10.7c.41-.04.94,0,.99.51.05.43.02,1-.52,1.05-.65.07-1.07-.04-1.08-.77,0-.45.13-.74.6-.79Z"/>
  </g>
  <rect class="cls-2" width="16.38" height="16.34"/>
</svg>