<?xml version="1.0" encoding="UTF-8"?>
<svg id="Layer_1" data-name="Layer 1" xmlns="http://www.w3.org/2000/svg" viewBox="0 0 16.38 16.34">
  <defs>
    <style>
      .cls-1 {
        fill: #f1f2f2;
      }

      .cls-2 {
        fill: none;
        opacity: 0;
        stroke: #f1f2f2;
        stroke-miterlimit: 10;
        stroke-width: .15px;
      }
    </style>
  </defs>
  <path class="cls-1" d="M5.07,1.54h6.52l1.78,1.67v9.81c0,.21-.09.41-.23.55-.14.14-.33.23-.55.23h-7.52c-.21,0-.41-.09-.55-.23-.14-.14-.23-.33-.23-.55V2.32c0-.21.09-.41.23-.55s.33-.23.55-.23ZM3.46,14.02V3.32c0-.09.04-.17.1-.23s.14-.1.23-.1h.19v-.45h-.19c-.21,0-.41.09-.55.23-.14.14-.23.33-.23.55v10.7c0,.21.09.41.23.55.14.14.33.23.55.23h7.52c.21,0,.41-.09.55-.23.12-.12.2-.28.22-.46h-.46c-.02.06-.04.11-.08.15-.06.06-.14.1-.23.1H3.79c-.09,0-.17-.04-.23-.1s-.1-.14-.1-.23ZM12.91,6.49v-2.83h-1.44c-.09,0-.17-.04-.23-.1-.06-.06-.1-.14-.1-.23v-1.34h-6.07c-.09,0-.17.04-.23.1-.06.06-.1.14-.1.23v10.7c0,.09.04.17.1.23s.14.1.23.1h7.52c.09,0,.17-.04.23-.1s.1-.14.1-.23v-6.52ZM11.79,9.78h-5.94s0,0,0,0h0s0,0,0,0h0s0,0,0,0h0s0,0,0,0h0s0,0,0,0h0s0,0,0,0h0s0,0,0,0h0s0,0,0,0h0s0,0,0,0h0s0,0,0,0h0s0,0,0,0h0s0,0,0,0h0s0,0,0,0h0s0,0,0,0h0s0,0,0,0h0s0,0,0,0h0s0,0,0,0h0s0,0,0,0h0s0,0,0,0h0s0,0,0,0h0s0,0,0,0h0s0,0,0,0h0s0,0,0,0h0s0,0,0,0h0s0,0,0,0h0s0,0,0,0h0s0,0,0,0h0s0,0,0,0h0s0,0,0,0h0s0,.01,0,.01h0s0,0,0,0h0s0,.01,0,.01h0s0,.01,0,.01h0s0,.01,0,.01h0s0,.01,0,.01h0s0,.01,0,.01h0s0,.01,0,.01h0s0,.01,0,.01h0s0,.01,0,.01h0s0,.01,0,.01h0s0,.01,0,.01h0s0,.01,0,.01h0s0,.01,0,.01h0s0,.01,0,.01h0s0,.01,0,.01h0s0,.01,0,.01h0s0,.01,0,.01h0s0,0,0,0h0s0,0,0,0h0s0,0,0,0h0s0,0,0,0h0s0,0,0,0h0s0,0,0,0h0s0,0,0,0h0s0,0,0,0h0s0,0,0,0h0s0,0,0,0h0s0,0,0,0h0s0,0,0,0h0s0,0,0,0h0s0,0,0,0h0s0,0,0,0h0s0,0,0,0h0s0,0,0,0h0s0,0,0,0h0s0,0,0,0h0s0,0,0,0h0s0,0,0,0h0s0,0,0,0h0s0,0,0,0h0s0,0,0,0h0s0,0,0,0h0s0,0,0,0h0s0,0,0,0h0s0,0,0,0h0s0,0,0,0h0s0,0,0,0h0s5.93,0,5.93,0c.18,0,.33-.1.33-.23s-.15-.23-.33-.23ZM11.79,8.61h-5.94s0,0,0,0h0s0,0,0,0h0s0,0,0,0h0s0,0,0,0h0s0,0,0,0h0s0,0,0,0h0s0,0,0,0h0s0,0,0,0h0s0,0,0,0h0s0,0,0,0h0s0,0,0,0h0s0,0,0,0h0s0,0,0,0h0s0,0,0,0h0s0,0,0,0h0s0,0,0,0h0s0,0,0,0h0s0,0,0,0h0s0,0,0,0h0s0,0,0,0h0s0,0,0,0h0s0,0,0,0h0s0,0,0,0h0s0,0,0,0h0s0,0,0,0h0s0,0,0,0h0s0,.01,0,.01h0s0,.01,0,.01h0s0,.01,0,.01h0s0,.01,0,.01h0s0,.01,0,.01h0s0,.01,0,.01h0s0,.01,0,.01h0s0,.01,0,.01h0s0,.01,0,.01c0,.13.15.23.33.23h5.93c.18,0,.33-.1.33-.23s-.15-.23-.33-.23ZM11.79,7.44h-5.94s0,0,0,0h0s0,0,0,0h0s0,0,0,0h0s0,0,0,0h0s0,0,0,0h0s0,0,0,0h0s0,0,0,0h0s0,0,0,0h0s0,0,0,0h0s0,0,0,0h0s0,0,0,0h0s0,0,0,0h0s0,0,0,0h0s0,0,0,0h0s0,0,0,0h0s0,0,0,0h0s0,0,0,0h0s0,0,0,0h0s0,0,0,0h0s0,0,0,0h0s0,0,0,0h0s0,0,0,0h0s0,0,0,0h0s0,0,0,0h0s0,0,0,0h0s0,.01,0,.01h0s0,.01,0,.01h0s0,.01,0,.01h0s0,.01,0,.01h0s0,.01,0,.01h0s0,.01,0,.01h0s0,.01,0,.01h0s0,.01,0,.01h0c0,.13.15.23.33.23h5.93c.18,0,.33-.1.33-.23s-.15-.23-.33-.23ZM11,6.72h.8c.18,0,.33-.1.33-.23,0-.04-.01-.08-.04-.11h0s0,0,0,0h0s0,0,0,0h0s0,0,0,0h0s0,0,0,0h0s0,0,0,0h0s0,0,0,0h0s0,0,0,0h0s0,0,0,0h0s0,0,0,0h0s0,0,0,0h0s0,0,0,0h0s0,0,0,0h0s0,0,0,0h0s0,0,0,0h0s0,0,0,0h0s0,0,0,0h0s0,0,0,0h0s0,0,0,0h0s0,0,0,0c0,0-.01,0-.02,0h0s0,0,0,0h0s0,0,0,0h-.01s0,0,0,0h0s0,0,0,0h0s0,0,0,0h0s0,0,0,0h0s0,0,0,0h0s0,0,0,0h0s0,0,0,0h0s0,0,0,0h0s0,0,0,0c0,0-.02,0-.02,0h0s0,0,0,0h0s-.01,0-.02,0h0s0,0,0,0h0s0,0,0,0h0s0,0,0,0h0s-.02,0-.03,0h0s0,0,0,0h-5.93s0,0,0,0h0s0,0,0,0h0s0,0,0,0h0s0,0,0,0h0s0,0,0,0h0s0,0,0,0h0s0,0,0,0h0s0,0,0,0h0s0,0,0,0h0s0,0,0,0h0s0,0,0,0h0s0,0,0,0h0s0,0,0,0h0s0,0,0,0h0s0,0,0,0h0s0,0,0,0h0s0,0,0,0h0s0,0,0,0h0s0,0,0,0h0s0,0,0,0h0s0,0,0,0h0s0,0,0,0h0s0,0,0,0h0s0,0,0,0h0s0,0,0,0h0s0,0,0,0h0s0,0,0,0h0s0,.01,0,.01h0s0,0,0,0h0s0,.01,0,.01h0s0,.01,0,.01h0s0,.01,0,.01h0s0,.01,0,.01h0s0,.01,0,.01h0s0,.01,0,.01h0s0,.01,0,.01h0c0,.13.15.23.33.23h5.14ZM5.86,5.55h5.93c.18,0,.33-.1.33-.23s-.15-.23-.33-.23h-5.93c-.18,0-.33.1-.33.23s.15.23.33.23ZM11.59,2.09v1.12h1.22l-1.22-1.12Z"/>
  <rect class="cls-2" width="16.38" height="16.34"/>
</svg>