<?xml version="1.0" encoding="UTF-8"?>
<svg id="Layer_1" data-name="Layer 1" xmlns="http://www.w3.org/2000/svg" viewBox="0 0 16.38 16.34">
  <defs>
    <style>
      .cls-1 {
        fill: #f1f2f2;
      }

      .cls-2 {
        fill: none;
        opacity: 0;
        stroke: #f1f2f2;
        stroke-miterlimit: 10;
        stroke-width: .15px;
      }
    </style>
  </defs>
  <g>
    <path class="cls-1" d="M6.53,3.18c1.17.04,2.41-.08,3.57,0,.47.03.56.13.8.5s.34.84.83.89c.85.07,1.82-.08,2.66,0,.33.03.49.18.51.51v7.6c-.03.3-.17.5-.49.51-3.97-.03-7.96.02-11.93.03-.4,0-.68-.17-.68-.6v-7.52c.03-.34.17-.51.51-.54.85-.08,1.81.07,2.66,0,.79-.07.68-1.38,1.53-1.38ZM6.61,3.65c-.54.08-.67,1.11-1.18,1.32-.08.03-.19.06-.27.06-.81.07-1.76-.09-2.55,0-.29.03-.33.27-.35.51-.14,2.17.11,4.48,0,6.66.02.27.06.48.37.51,3.82,0,7.63,0,11.46,0,.31-.03.36-.24.37-.51-.03-2.31.05-4.64-.04-6.95-.07-.17-.18-.21-.36-.22-.78-.07-1.66.06-2.44,0-.92-.07-.85-1.28-1.48-1.38h-3.54Z"/>
    <path class="cls-1" d="M8.2,5.68c1.2-.08,2.48.67,3.01,1.74,1.57,3.15-2.31,6.13-4.92,3.87-2.17-1.88-.93-5.42,1.91-5.61ZM7.97,6.18c-2.06.21-3.06,2.84-1.74,4.42,1.71,2.05,5.03.78,4.86-1.92-.11-1.65-1.51-2.66-3.11-2.5Z"/>
    <path class="cls-1" d="M3.62,5.68c.3-.04,1.1-.05,1.35.11.41.26.4.91-.05,1.11-.24.11-1,.1-1.28.08-.93-.08-.92-1.19-.02-1.3ZM3.7,6.17c-.2.05-.21.27,0,.32s.59.04.8,0c.24-.04.23-.29,0-.33-.12-.02-.69-.02-.8,0Z"/>
    <path class="cls-1" d="M7.28,4.57c.66-.1,1.5.05,2.18,0,.4.08.36.43-.05.47-.5.05-1.49.04-2,0-.16-.01-.44-.07-.4-.29.02-.11.17-.16.27-.17Z"/>
    <path class="cls-1" d="M8.22,6.76c2.08-.15,3.1,2.54,1.42,3.8-1.26.94-2.98.27-3.34-1.23-.3-1.25.66-2.48,1.92-2.57ZM7.18,10.04c.77.77,2.11.61,2.64-.35.77-1.38-.6-2.9-2.06-2.37-1.1.4-1.39,1.9-.57,2.72Z"/>
  </g>
  <rect class="cls-2" width="16.38" height="16.34"/>
</svg>