<?xml version="1.0" encoding="UTF-8"?>
<svg id="Layer_1" data-name="Layer 1" xmlns="http://www.w3.org/2000/svg" viewBox="0 0 215.69 33.55">
  <defs>
    <style>
      .cls-1 {
        fill: #b3a7a1;
      }

      .cls-2 {
        fill: #68488e;
      }
    </style>
  </defs>
  <rect class="cls-2" x="97.1" y="5.39" width="1.43" height="1.58"/>
  <rect class="cls-2" x="97.1" y="7.27" width="1.43" height="1.57"/>
  <rect class="cls-2" x="97.1" y="9.14" width="1.43" height="1.57"/>
  <rect class="cls-2" x="97.1" y="11.01" width="1.43" height="1.57"/>
  <rect class="cls-2" x="97.1" y="12.88" width="1.43" height="1.57"/>
  <rect class="cls-2" x="97.1" y="14.76" width="1.43" height="1.57"/>
  <rect class="cls-2" x="97.1" y="16.63" width="1.43" height="1.57"/>
  <rect class="cls-2" x="97.1" y="18.5" width="1.43" height=".91"/>
  <rect class="cls-1" x="98.83" y="5.39" width="1.57" height="1.58"/>
  <rect class="cls-1" x="98.83" y="7.27" width="1.57" height="1.57"/>
  <rect class="cls-1" x="98.83" y="9.14" width="1.57" height="1.57"/>
  <rect class="cls-1" x="98.83" y="11.01" width="1.57" height="1.57"/>
  <rect class="cls-1" x="98.83" y="12.88" width="1.57" height="1.57"/>
  <rect class="cls-1" x="98.83" y="14.76" width="1.57" height="1.57"/>
  <rect class="cls-1" x="98.83" y="16.63" width="1.57" height="1.57"/>
  <rect class="cls-1" x="98.83" y="18.5" width="1.57" height=".91"/>
  <polygon class="cls-2" points="103 5.39 104.14 5.39 104.14 6.97 102.99 6.97 103 5.39"/>
  <rect class="cls-1" x="102.99" y="7.27" width="1.15" height="1.33"/>
  <rect class="cls-2" x="104.44" y="5.39" width="1.57" height="1.58"/>
  <rect class="cls-1" x="104.44" y="7.27" width="1.57" height="1.33"/>
  <rect class="cls-2" x="106.32" y="5.39" width="1.57" height="1.58"/>
  <rect class="cls-1" x="106.32" y="7.27" width="1.57" height="1.33"/>
  <rect class="cls-2" x="108.19" y="5.39" width="1.57" height="1.58"/>
  <rect class="cls-1" x="108.19" y="7.27" width="1.57" height="1.33"/>
  <rect class="cls-2" x="110.06" y="5.39" width="1.57" height="1.58"/>
  <rect class="cls-1" x="110.06" y="7.27" width="1.57" height="1.33"/>
  <rect class="cls-2" x="111.93" y="5.39" width="1.57" height="1.58"/>
  <rect class="cls-1" x="111.93" y="7.27" width="1.57" height="1.33"/>
  <path class="cls-2" d="M115.23,5.39s.1.02.15.04v1.54h-1.57v-1.58h1.42Z"/>
  <rect class="cls-1" x="113.81" y="7.27" width="1.57" height="1.57"/>
  <rect class="cls-1" x="113.81" y="9.14" width="1.57" height="1.57"/>
  <polygon class="cls-1" points="113.8 8.88 113.81 10.71 113.81 11.01 115.38 11.01 115.38 12.58 113.81 12.58 113.8 8.88"/>
  <rect class="cls-1" x="113.81" y="12.88" width="1.57" height="1.57"/>
  <rect class="cls-1" x="113.81" y="14.76" width="1.57" height="1.57"/>
  <rect class="cls-1" x="113.81" y="16.63" width="1.57" height="1.57"/>
  <rect class="cls-1" x="113.81" y="18.5" width="1.57" height=".91"/>
  <path class="cls-2" d="M117.02,6.97h-1.34v-1.43c.65.28,1.1.75,1.34,1.43Z"/>
  <path class="cls-2" d="M117.24,8.84h-1.56v-1.57h1.43c.09.34.13.72.13,1.14v.43Z"/>
  <rect class="cls-2" x="115.68" y="9.14" width="1.56" height="1.57"/>
  <rect class="cls-2" x="115.68" y="11.01" width="1.56" height="1.57"/>
  <polygon class="cls-2" points="117.25 14.45 115.68 14.45 115.68 12.88 117.24 12.88 117.25 14.45"/>
  <rect class="cls-2" x="115.68" y="14.76" width="1.57" height="1.57"/>
  <rect class="cls-2" x="115.68" y="16.63" width="1.57" height="1.57"/>
  <rect class="cls-2" x="115.68" y="18.5" width="1.57" height=".91"/>
  <rect class="cls-2" x="102.99" y="10.66" width="1.15" height=".05"/>
  <rect class="cls-2" x="102.99" y="11.01" width="1.15" height="1.57"/>
  <rect class="cls-2" x="102.99" y="12.88" width="1.15" height="1.57"/>
  <polygon class="cls-2" points="102.99 14.76 104.14 14.76 104.14 16.33 103 16.33 102.99 14.76"/>
  <rect class="cls-2" x="103" y="16.63" width="1.14" height="1.57"/>
  <rect class="cls-2" x="103" y="18.5" width="1.14" height=".91"/>
  <rect class="cls-2" x="104.44" y="10.66" width="1.57" height=".05"/>
  <rect class="cls-2" x="104.44" y="11.01" width="1.57" height="1.57"/>
  <rect class="cls-2" x="104.44" y="12.88" width="1.57" height="1.57"/>
  <rect class="cls-2" x="104.44" y="14.76" width="1.57" height="1.57"/>
  <rect class="cls-2" x="104.44" y="16.63" width="1.57" height="1.57"/>
  <polygon class="cls-2" points="104.44 18.5 106.01 18.5 106.01 19.42 104.44 19.41 104.44 18.5"/>
  <rect class="cls-2" x="106.32" y="10.66" width=".11" height=".05"/>
  <rect class="cls-2" x="106.32" y="11.01" width=".11" height="1.57"/>
  <rect class="cls-2" x="106.32" y="12.88" width=".11" height="1.57"/>
  <polygon class="cls-2" points="106.44 16.33 106.32 16.33 106.32 14.76 106.43 14.76 106.44 16.33"/>
  <rect class="cls-2" x="106.32" y="16.63" width=".12" height="1.57"/>
  <rect class="cls-2" x="106.32" y="18.5" width=".12" height=".92"/>
  <rect class="cls-2" x="119.71" y="5.39" width="1.28" height="1.58"/>
  <rect class="cls-1" x="119.71" y="7.27" width="1.28" height="1.33"/>
  <rect class="cls-2" x="121.29" y="5.39" width="1.58" height="1.58"/>
  <rect class="cls-1" x="121.29" y="7.27" width="1.58" height="1.33"/>
  <rect class="cls-2" x="123.17" y="5.39" width="1.57" height="1.58"/>
  <rect class="cls-1" x="123.17" y="7.27" width="1.57" height="1.33"/>
  <rect class="cls-2" x="125.04" y="5.39" width="1.57" height="1.58"/>
  <rect class="cls-1" x="125.04" y="7.27" width="1.57" height="1.33"/>
  <rect class="cls-2" x="126.91" y="5.39" width="1.57" height="1.58"/>
  <rect class="cls-1" x="126.91" y="7.27" width="1.57" height="1.33"/>
  <rect class="cls-2" x="128.78" y="5.39" width="1.57" height="1.58"/>
  <rect class="cls-2" x="128.78" y="7.27" width="1.57" height="1.33"/>
  <rect class="cls-2" x="130.66" y="7.27" width="1.33" height="1.33"/>
  <polygon class="cls-2" points="132 5.39 131.99 6.97 130.66 6.97 130.66 5.39 132 5.39"/>
  <rect class="cls-2" x="124.13" y="10.65" width=".61" height=".06"/>
  <rect class="cls-2" x="124.13" y="11.01" width=".61" height="1.57"/>
  <rect class="cls-2" x="124.13" y="12.88" width=".61" height="1.57"/>
  <polygon class="cls-2" points="124.13 14.76 124.74 14.76 124.74 16.33 124.14 16.33 124.13 14.76"/>
  <rect class="cls-2" x="124.14" y="16.63" width=".6" height="1.57"/>
  <rect class="cls-2" x="124.14" y="18.5" width=".6" height=".9"/>
  <rect class="cls-2" x="125.04" y="10.65" width="1.57" height=".06"/>
  <rect class="cls-2" x="125.04" y="11.01" width="1.57" height="1.57"/>
  <rect class="cls-2" x="125.04" y="12.88" width="1.57" height="1.57"/>
  <rect class="cls-2" x="125.04" y="14.76" width="1.57" height="1.57"/>
  <rect class="cls-2" x="125.04" y="16.63" width="1.57" height="1.57"/>
  <polygon class="cls-2" points="125.04 18.5 126.61 18.5 126.61 19.41 125.04 19.4 125.04 18.5"/>
  <rect class="cls-1" x="126.91" y="16.63" width=".67" height="1.57"/>
  <rect class="cls-1" x="126.91" y="18.5" width=".67" height=".91"/>
  <polygon class="cls-1" points="126.91 14.76 127.59 14.76 127.58 16.33 126.91 16.33 126.91 14.76"/>
  <rect class="cls-1" x="126.91" y="10.65" width=".68" height=".06"/>
  <rect class="cls-1" x="126.91" y="11.01" width=".68" height="1.57"/>
  <rect class="cls-1" x="126.91" y="12.88" width=".68" height="1.57"/>
  <polygon class="cls-2" points="134.45 5.39 135.97 5.39 135.97 6.97 134.44 6.97 134.45 5.39"/>
  <rect class="cls-1" x="134.44" y="7.27" width="1.53" height="1.33"/>
  <polygon class="cls-2" points="134.46 10.65 135.97 10.65 135.97 10.71 134.44 10.71 134.44 10.66 134.46 10.66 134.46 10.65"/>
  <rect class="cls-2" x="134.44" y="11.01" width="1.53" height="1.57"/>
  <rect class="cls-2" x="134.44" y="12.88" width="1.53" height="1.57"/>
  <polygon class="cls-2" points="134.44 14.76 135.97 14.76 135.97 16.33 134.45 16.33 134.44 14.76"/>
  <rect class="cls-2" x="134.45" y="16.63" width="1.52" height="1.57"/>
  <rect class="cls-2" x="134.45" y="18.5" width="1.52" height=".91"/>
  <rect class="cls-2" x="136.27" y="5.39" width="1.57" height="1.58"/>
  <rect class="cls-1" x="136.27" y="7.27" width="1.57" height="1.33"/>
  <rect class="cls-2" x="136.27" y="10.65" width="1.57" height=".06"/>
  <rect class="cls-2" x="136.27" y="11.01" width="1.57" height="1.57"/>
  <rect class="cls-2" x="136.27" y="12.88" width="1.57" height="1.57"/>
  <rect class="cls-2" x="136.27" y="14.76" width="1.57" height="1.57"/>
  <rect class="cls-2" x="136.27" y="16.63" width="1.57" height="1.57"/>
  <rect class="cls-2" x="136.27" y="18.5" width="1.57" height=".9"/>
  <rect class="cls-2" x="138.14" y="5.39" width="1.58" height="1.58"/>
  <rect class="cls-1" x="138.14" y="7.27" width="1.58" height="1.33"/>
  <rect class="cls-2" x="138.14" y="10.65" width="1.58" height=".06"/>
  <rect class="cls-2" x="138.14" y="11.01" width="1.58" height="1.57"/>
  <rect class="cls-2" x="138.14" y="12.88" width="1.58" height="1.12"/>
  <rect class="cls-2" x="140.02" y="5.39" width="1.57" height="1.58"/>
  <rect class="cls-1" x="140.02" y="7.27" width="1.57" height="1.33"/>
  <rect class="cls-2" x="140.02" y="10.65" width="1.57" height=".06"/>
  <rect class="cls-2" x="140.02" y="11.01" width="1.57" height="1.57"/>
  <rect class="cls-2" x="140.02" y="12.88" width="1.57" height="1.12"/>
  <rect class="cls-2" x="141.89" y="5.39" width="1.57" height="1.58"/>
  <rect class="cls-1" x="141.89" y="7.27" width="1.57" height="1.33"/>
  <rect class="cls-2" x="141.89" y="10.65" width="1.57" height=".06"/>
  <rect class="cls-2" x="141.89" y="11.01" width="1.57" height="1.57"/>
  <rect class="cls-2" x="141.89" y="12.88" width="1.57" height="1.12"/>
  <rect class="cls-2" x="143.76" y="5.39" width="1.57" height="1.58"/>
  <path class="cls-1" d="M143.76,7.27h1.57v1.57h-.09c0-.16-.08-.24-.23-.24h-1.25v-1.33Z"/>
  <path class="cls-2" d="M145.25,9.14h.08v1.57h-1.57v-.06h1.26c.15,0,.23-.1.23-.29v-1.22Z"/>
  <rect class="cls-2" x="143.76" y="11.01" width="1.57" height="1.57"/>
  <path class="cls-2" d="M143.76,12.88h1.57v1.57h-.07v-.17c0-.18-.08-.27-.25-.28h-1.25v-1.12Z"/>
  <rect class="cls-2" x="145.26" y="14.76" width=".07" height="1.57"/>
  <rect class="cls-2" x="145.26" y="16.63" width=".07" height="1.57"/>
  <rect class="cls-2" x="145.26" y="18.5" width=".07" height=".91"/>
  <path class="cls-2" d="M146.73,5.39c.17.04.33.09.48.16v1.42h-1.57v-1.58h1.09Z"/>
  <rect class="cls-2" x="145.64" y="7.27" width="1.57" height="1.57"/>
  <rect class="cls-2" x="145.64" y="9.14" width="1.57" height="1.57"/>
  <rect class="cls-2" x="145.64" y="11.01" width="1.57" height="1.57"/>
  <rect class="cls-2" x="145.64" y="12.88" width="1.57" height="1.57"/>
  <rect class="cls-2" x="145.64" y="14.76" width="1.57" height="1.57"/>
  <rect class="cls-2" x="145.64" y="16.63" width="1.57" height="1.57"/>
  <rect class="cls-2" x="145.64" y="18.5" width="1.57" height=".91"/>
  <path class="cls-1" d="M148.51,6.97h-1v-1.27c.48.29.82.71,1,1.27Z"/>
  <path class="cls-1" d="M148.3,12.58h-.79v-1.57h1.18c-.03.65-.28,1.08-.75,1.31.14.07.26.15.36.26Z"/>
  <path class="cls-1" d="M148.7,8.84h-1.19v-1.57h1.09c.06.28.09.58.09.92h.01v.65Z"/>
  <rect class="cls-1" x="147.51" y="9.14" width="1.19" height="1.57"/>
  <rect class="cls-1" x="147.51" y="16.63" width="1.19" height="1.57"/>
  <rect class="cls-1" x="147.51" y="18.5" width="1.19" height=".91"/>
  <path class="cls-1" d="M148.71,13.59v.86h-1.2v-1.57h1.02c.12.2.17.44.17.71h.01Z"/>
  <rect class="cls-1" x="147.51" y="14.76" width="1.2" height="1.57"/>
  <path class="cls-2" d="M152.82,5.52v1.45h-1.41c.27-.7.74-1.19,1.41-1.45Z"/>
  <path class="cls-1" d="M152.82,7.27v1.33h-1.57v-1.08c.02-.09.04-.17.06-.25h1.51Z"/>
  <rect class="cls-2" x="151.25" y="10.66" width="1.57" height=".05"/>
  <rect class="cls-2" x="151.25" y="11.01" width="1.57" height="1.57"/>
  <rect class="cls-2" x="151.25" y="12.88" width="1.57" height="1.57"/>
  <rect class="cls-2" x="151.25" y="14.76" width="1.57" height="1.57"/>
  <rect class="cls-2" x="151.25" y="16.63" width="1.57" height="1.57"/>
  <rect class="cls-2" x="151.25" y="18.5" width="1.57" height=".91"/>
  <rect class="cls-2" x="153.12" y="14.76" width="1.48" height="1.57"/>
  <rect class="cls-2" x="153.12" y="16.63" width="1.48" height="1.57"/>
  <rect class="cls-2" x="153.12" y="18.5" width="1.48" height=".9"/>
  <path class="cls-2" d="M153.2,5.39h1.5v1.58h-1.58v-1.56s.05-.02.08-.02Z"/>
  <rect class="cls-1" x="153.12" y="7.27" width="1.58" height="1.33"/>
  <rect class="cls-2" x="153.12" y="10.66" width="1.58" height=".05"/>
  <rect class="cls-2" x="153.12" y="11.01" width="1.58" height="1.57"/>
  <polygon class="cls-2" points="153.12 12.88 154.7 12.88 154.7 14 154.6 14 154.6 14.45 153.12 14.45 153.12 12.88"/>
  <rect class="cls-2" x="155" y="5.39" width="1.57" height="1.58"/>
  <rect class="cls-1" x="155" y="7.27" width="1.57" height="1.33"/>
  <rect class="cls-2" x="155" y="10.66" width="1.57" height=".05"/>
  <rect class="cls-2" x="155" y="11.01" width="1.57" height="1.57"/>
  <rect class="cls-2" x="155" y="12.88" width="1.57" height="1.12"/>
  <rect class="cls-2" x="156.87" y="5.39" width="1.57" height="1.58"/>
  <rect class="cls-1" x="156.87" y="7.27" width="1.57" height="1.33"/>
  <rect class="cls-2" x="156.87" y="10.66" width="1.57" height=".05"/>
  <rect class="cls-2" x="156.87" y="11.01" width="1.57" height="1.57"/>
  <rect class="cls-2" x="156.87" y="12.88" width="1.57" height="1.12"/>
  <rect class="cls-2" x="158.74" y="5.39" width="1.57" height="1.58"/>
  <rect class="cls-1" x="158.74" y="7.27" width="1.57" height="1.33"/>
  <rect class="cls-2" x="158.74" y="10.66" width="1.57" height=".05"/>
  <rect class="cls-2" x="158.74" y="11.01" width="1.57" height="1.57"/>
  <rect class="cls-2" x="158.74" y="12.88" width="1.57" height="1.12"/>
  <rect class="cls-2" x="160.61" y="5.39" width="1.57" height="1.58"/>
  <polygon class="cls-1" points="160.61 7.27 162.18 7.27 162.18 8.84 161.97 8.84 161.97 8.6 160.61 8.6 160.61 7.27"/>
  <polygon class="cls-2" points="161.97 9.14 162.18 9.14 162.18 10.71 160.61 10.71 160.61 10.66 161.97 10.66 161.97 9.14"/>
  <rect class="cls-2" x="160.61" y="11.01" width="1.57" height="1.57"/>
  <polygon class="cls-2" points="160.61 12.88 162.18 12.88 162.18 14.45 161.97 14.45 161.97 14 160.61 14 160.61 12.88"/>
  <rect class="cls-2" x="161.97" y="14.76" width=".21" height="1.57"/>
  <rect class="cls-2" x="161.97" y="16.63" width=".21" height="1.57"/>
  <rect class="cls-2" x="161.97" y="18.5" width=".21" height=".91"/>
  <path class="cls-2" d="M163.43,5.39c.23.06.44.13.63.23v1.35h-1.57v-1.58h.94Z"/>
  <rect class="cls-2" x="162.49" y="7.27" width="1.57" height="1.57"/>
  <rect class="cls-2" x="162.49" y="9.14" width="1.57" height="1.57"/>
  <rect class="cls-2" x="162.49" y="11.01" width="1.57" height="1.57"/>
  <rect class="cls-2" x="162.49" y="12.88" width="1.57" height="1.57"/>
  <rect class="cls-2" x="162.49" y="14.76" width="1.57" height="1.57"/>
  <rect class="cls-2" x="162.49" y="16.63" width="1.57" height="1.57"/>
  <rect class="cls-2" x="162.49" y="18.5" width="1.57" height=".91"/>
  <path class="cls-1" d="M165.22,6.97h-.86v-1.18c.41.29.7.68.86,1.18Z"/>
  <path class="cls-1" d="M165.41,8.19v.65h-1.05v-1.57h.95c.06.28.09.58.09.92h.01Z"/>
  <rect class="cls-1" x="164.36" y="9.14" width="1.05" height="1.57"/>
  <rect class="cls-1" x="164.36" y="11.01" width="1.05" height="1.57"/>
  <rect class="cls-1" x="164.36" y="12.88" width="1.05" height="1.57"/>
  <rect class="cls-1" x="164.36" y="14.76" width="1.05" height="1.57"/>
  <rect class="cls-1" x="164.36" y="16.63" width="1.05" height="1.57"/>
  <rect class="cls-1" x="164.36" y="18.5" width="1.05" height=".91"/>
  <rect class="cls-2" x="168.1" y="10.66" width="1.57" height=".05"/>
  <rect class="cls-2" x="168.1" y="11.01" width="1.57" height="1.57"/>
  <rect class="cls-2" x="168.1" y="12.88" width="1.57" height="1.57"/>
  <rect class="cls-2" x="168.1" y="14.76" width="1.57" height="1.57"/>
  <rect class="cls-2" x="168.1" y="16.63" width="1.57" height="1.57"/>
  <polygon class="cls-2" points="168.1 18.5 169.67 18.5 169.67 19.42 168.1 19.41 168.1 18.5"/>
  <rect class="cls-2" x="169.97" y="10.66" width="1.33" height=".05"/>
  <rect class="cls-2" x="169.97" y="11.01" width="1.33" height="1.57"/>
  <rect class="cls-2" x="169.97" y="12.88" width="1.33" height="1.57"/>
  <polygon class="cls-2" points="171.31 16.33 169.97 16.33 169.97 14.76 171.3 14.76 171.31 16.33"/>
  <rect class="cls-2" x="169.97" y="16.63" width="1.34" height="1.57"/>
  <rect class="cls-2" x="169.97" y="18.5" width="1.34" height=".92"/>
  <rect class="cls-2" x="168.1" y="5.39" width="1.57" height="1.58"/>
  <rect class="cls-1" x="168.1" y="7.27" width="1.57" height="1.33"/>
  <rect class="cls-2" x="169.97" y="5.39" width="1.58" height="1.58"/>
  <rect class="cls-1" x="169.97" y="7.27" width="1.58" height="1.33"/>
  <rect class="cls-2" x="171.85" y="5.39" width="1.57" height="1.58"/>
  <rect class="cls-1" x="171.85" y="7.27" width="1.57" height="1.33"/>
  <rect class="cls-2" x="173.72" y="5.39" width="1.57" height="1.58"/>
  <rect class="cls-1" x="173.72" y="7.27" width="1.57" height="1.33"/>
  <rect class="cls-2" x="175.59" y="5.39" width="1.57" height="1.58"/>
  <rect class="cls-1" x="175.59" y="7.27" width="1.57" height="1.33"/>
  <rect class="cls-2" x="177.46" y="5.39" width="1.58" height="1.58"/>
  <path class="cls-1" d="M177.46,7.27h1.58v1.57h-.38c0-.16-.08-.24-.23-.24h-.97v-1.33Z"/>
  <rect class="cls-2" x="178.67" y="9.14" width=".37" height="1.57"/>
  <rect class="cls-2" x="178.67" y="11.01" width=".37" height="1.57"/>
  <polygon class="cls-2" points="178.67 12.88 179.04 12.88 179.04 14.45 178.68 14.45 178.67 12.88"/>
  <rect class="cls-2" x="178.68" y="14.76" width=".36" height="1.57"/>
  <rect class="cls-2" x="178.68" y="16.63" width=".36" height="1.57"/>
  <rect class="cls-2" x="178.68" y="18.5" width=".36" height=".91"/>
  <path class="cls-2" d="M180.11,5.39c.3.08.57.19.8.34v1.24h-1.57v-1.58h.77Z"/>
  <rect class="cls-1" x="179.34" y="7.27" width="1.57" height="1.57"/>
  <rect class="cls-1" x="179.34" y="9.14" width="1.57" height="1.57"/>
  <rect class="cls-1" x="179.34" y="11.01" width="1.57" height="1.57"/>
  <rect class="cls-1" x="179.34" y="12.88" width="1.57" height="1.57"/>
  <rect class="cls-1" x="179.34" y="14.76" width="1.57" height="1.57"/>
  <rect class="cls-1" x="179.34" y="16.63" width="1.57" height="1.57"/>
  <rect class="cls-1" x="179.34" y="18.5" width="1.57" height=".91"/>
  <path class="cls-2" d="M181.89,6.97h-.68v-1.02c.31.27.53.6.68,1.02Z"/>
  <path class="cls-2" d="M182.11,8.84h-.9v-1.57h.77c.09.34.13.72.13,1.14v.43Z"/>
  <rect class="cls-2" x="181.21" y="9.14" width=".9" height="1.57"/>
  <rect class="cls-2" x="181.21" y="11.01" width=".9" height="1.57"/>
  <polygon class="cls-2" points="182.12 14.45 181.21 14.45 181.21 12.88 182.11 12.88 182.12 14.45"/>
  <rect class="cls-2" x="181.21" y="14.76" width=".91" height="1.57"/>
  <rect class="cls-2" x="181.21" y="16.63" width=".91" height="1.57"/>
  <rect class="cls-2" x="181.21" y="18.5" width=".91" height=".91"/>
  <rect class="cls-2" x="184.57" y="10.66" width=".08" height=".05"/>
  <rect class="cls-2" x="184.57" y="11.01" width=".08" height="1.57"/>
  <polygon class="cls-2" points="184.57 12.88 184.65 12.88 184.65 14.45 184.58 14.45 184.57 12.88"/>
  <rect class="cls-2" x="184.58" y="14.76" width=".07" height="1.57"/>
  <path class="cls-2" d="M184.59,16.63h.06v.49c-.03-.15-.05-.32-.06-.49Z"/>
  <rect class="cls-2" x="184.95" y="10.66" width="1.58" height=".05"/>
  <rect class="cls-2" x="184.95" y="11.01" width="1.58" height="1.57"/>
  <rect class="cls-2" x="184.95" y="12.88" width="1.58" height="1.57"/>
  <rect class="cls-2" x="184.95" y="14.76" width="1.58" height="1.57"/>
  <path class="cls-2" d="M184.95,16.63h1.58v1.57h-1.49s-.06-.1-.09-.16v-1.41Z"/>
  <path class="cls-2" d="M185.26,18.5h1.27v.76c-.54-.14-.96-.39-1.27-.76Z"/>
  <rect class="cls-2" x="186.83" y="10.66" width="1.57" height=".05"/>
  <rect class="cls-2" x="186.83" y="11.01" width="1.57" height="1.57"/>
  <polygon class="cls-1" points="186.83 12.88 188.4 12.88 188.4 14 188.02 14 188.02 14.45 186.83 14.45 186.83 12.88"/>
  <path class="cls-1" d="M188.27,16.07h.13v.26h-1.57v-1.57h1.19v1.01c0,.2.08.3.25.3Z"/>
  <rect class="cls-1" x="186.83" y="16.63" width="1.57" height="1.57"/>
  <path class="cls-1" d="M186.83,18.5h1.57v.92h-.63c-.34,0-.66-.03-.94-.08v-.84Z"/>
  <rect class="cls-2" x="188.7" y="10.66" width="1.57" height=".05"/>
  <rect class="cls-2" x="188.7" y="11.01" width="1.57" height="1.57"/>
  <rect class="cls-1" x="188.7" y="12.88" width="1.57" height="1.12"/>
  <rect class="cls-2" x="188.7" y="16.07" width="1.57" height=".26"/>
  <rect class="cls-2" x="188.7" y="16.63" width="1.57" height="1.57"/>
  <rect class="cls-2" x="188.7" y="18.5" width="1.57" height=".92"/>
  <rect class="cls-2" x="190.57" y="10.66" width="1.57" height=".05"/>
  <rect class="cls-2" x="190.57" y="11.01" width="1.57" height="1.57"/>
  <rect class="cls-1" x="190.57" y="12.88" width="1.57" height="1.12"/>
  <rect class="cls-2" x="190.57" y="16.07" width="1.57" height=".26"/>
  <rect class="cls-2" x="190.57" y="16.63" width="1.57" height="1.57"/>
  <rect class="cls-2" x="190.57" y="18.5" width="1.57" height=".92"/>
  <rect class="cls-2" x="192.44" y="10.66" width="1.57" height=".05"/>
  <rect class="cls-2" x="192.44" y="11.01" width="1.57" height="1.57"/>
  <rect class="cls-1" x="192.44" y="12.88" width="1.57" height="1.12"/>
  <polygon class="cls-2" points="192.44 16.07 194.01 16.06 194.01 16.33 192.44 16.33 192.44 16.07"/>
  <rect class="cls-2" x="192.44" y="16.63" width="1.57" height="1.57"/>
  <rect class="cls-2" x="192.44" y="18.5" width="1.57" height=".91"/>
  <rect class="cls-2" x="194.32" y="10.66" width="1.57" height=".05"/>
  <rect class="cls-2" x="194.32" y="11.01" width="1.57" height="1.57"/>
  <rect class="cls-1" x="194.32" y="12.88" width="1.57" height="1.12"/>
  <rect class="cls-2" x="194.32" y="16.06" width="1.57" height=".27"/>
  <rect class="cls-2" x="194.32" y="16.63" width="1.57" height="1.57"/>
  <rect class="cls-2" x="194.32" y="18.5" width="1.57" height=".91"/>
  <rect class="cls-2" x="196.19" y="10.66" width=".68" height=".05"/>
  <rect class="cls-2" x="196.19" y="11.01" width=".68" height="1.57"/>
  <rect class="cls-1" x="196.19" y="12.88" width=".68" height="1.12"/>
  <rect class="cls-2" x="196.19" y="18.5" width=".68" height=".91"/>
  <polygon class="cls-2" points="196.19 16.63 196.88 16.63 196.87 18.2 196.19 18.2 196.19 16.63"/>
  <rect class="cls-2" x="196.19" y="16.06" width=".69" height=".27"/>
  <rect class="cls-2" x="184.58" y="5.39" width=".07" height="1.58"/>
  <rect class="cls-1" x="184.58" y="7.27" width=".07" height="1.33"/>
  <rect class="cls-2" x="184.95" y="5.39" width="1.58" height="1.58"/>
  <rect class="cls-1" x="184.95" y="7.27" width="1.58" height="1.33"/>
  <rect class="cls-2" x="186.83" y="5.39" width="1.57" height="1.58"/>
  <rect class="cls-1" x="186.83" y="7.27" width="1.57" height="1.33"/>
  <rect class="cls-2" x="188.7" y="5.39" width="1.57" height="1.58"/>
  <rect class="cls-1" x="188.7" y="7.27" width="1.57" height="1.33"/>
  <rect class="cls-2" x="190.57" y="5.39" width="1.57" height="1.58"/>
  <rect class="cls-1" x="190.57" y="7.27" width="1.57" height="1.33"/>
  <rect class="cls-2" x="192.44" y="5.39" width="1.57" height="1.58"/>
  <rect class="cls-1" x="192.44" y="7.27" width="1.57" height="1.33"/>
  <rect class="cls-2" x="194.32" y="5.39" width="1.57" height="1.58"/>
  <rect class="cls-1" x="194.32" y="7.27" width="1.57" height="1.33"/>
  <rect class="cls-1" x="196.19" y="7.27" width=".68" height="1.33"/>
  <polygon class="cls-2" points="196.88 5.39 196.87 6.97 196.19 6.97 196.19 5.39 196.88 5.39"/>
  <rect class="cls-2" x="199.32" y="5.39" width=".31" height="1.58"/>
  <rect class="cls-1" x="199.32" y="7.27" width=".31" height="1.33"/>
  <rect class="cls-2" x="199.93" y="5.39" width="1.57" height="1.58"/>
  <rect class="cls-1" x="199.93" y="7.27" width="1.57" height="1.33"/>
  <rect class="cls-2" x="201.81" y="5.39" width="1.57" height="1.58"/>
  <rect class="cls-1" x="201.81" y="7.27" width="1.57" height="1.33"/>
  <rect class="cls-2" x="203.68" y="5.39" width="1.57" height="1.58"/>
  <rect class="cls-1" x="203.68" y="7.27" width="1.57" height="1.33"/>
  <rect class="cls-2" x="205.55" y="5.39" width="1.57" height="1.58"/>
  <rect class="cls-1" x="205.55" y="7.27" width="1.57" height="1.33"/>
  <rect class="cls-2" x="207.42" y="5.39" width="1.57" height="1.58"/>
  <rect class="cls-2" x="207.42" y="7.27" width="1.57" height="1.33"/>
  <rect class="cls-2" x="209.29" y="5.39" width="1.58" height="1.58"/>
  <rect class="cls-2" x="209.29" y="7.27" width="1.58" height="1.33"/>
  <rect class="cls-2" x="211.17" y="7.27" width=".44" height="1.33"/>
  <polygon class="cls-2" points="211.62 5.39 211.61 6.97 211.17 6.97 211.17 5.39 211.62 5.39"/>
  <rect class="cls-2" x="203.75" y="10.65" width="1.5" height=".06"/>
  <rect class="cls-2" x="203.75" y="11.01" width="1.5" height="1.57"/>
  <rect class="cls-2" x="203.75" y="12.88" width="1.5" height="1.57"/>
  <polygon class="cls-2" points="203.75 14.76 205.25 14.76 205.25 16.33 203.76 16.33 203.75 14.76"/>
  <rect class="cls-2" x="203.76" y="16.63" width="1.49" height="1.57"/>
  <rect class="cls-2" x="203.76" y="18.5" width="1.49" height=".9"/>
  <rect class="cls-1" x="205.55" y="10.65" width="1.57" height=".06"/>
  <rect class="cls-1" x="205.55" y="11.01" width="1.57" height="1.57"/>
  <rect class="cls-1" x="205.55" y="12.88" width="1.57" height="1.57"/>
  <rect class="cls-1" x="205.55" y="14.76" width="1.57" height="1.57"/>
  <rect class="cls-1" x="205.55" y="16.63" width="1.57" height="1.57"/>
  <rect class="cls-1" x="205.55" y="18.5" width="1.57" height=".91"/>
  <g>
    <path class="cls-2" d="M92.35,9.69c-1.47,0-2.67-1.2-2.67-2.67s1.2-2.67,2.67-2.67,2.67,1.2,2.67,2.67-1.2,2.67-2.67,2.67ZM92.35,4.44c-1.42,0-2.58,1.16-2.58,2.58s1.16,2.58,2.58,2.58,2.58-1.16,2.58-2.58-1.16-2.58-2.58-2.58Z"/>
    <path class="cls-2" d="M91.76,6.37s0,.04,0,.06,0,.03-.01.04-.01.02-.02.02c0,0-.01,0-.02,0h-.36v1.17s0,.02,0,.02-.01.01-.03.02-.03,0-.05.01c-.02,0-.05,0-.08,0s-.06,0-.08,0-.04,0-.05-.01c-.01,0-.02-.01-.03-.02,0,0,0-.01,0-.02v-1.17h-.36s-.02,0-.03,0c0,0-.01-.01-.02-.02,0-.01-.01-.03-.01-.04s0-.04,0-.06c0-.02,0-.05,0-.06s0-.03.01-.04c0-.01.01-.02.02-.02,0,0,.02,0,.03,0h1.04s.02,0,.02,0c0,0,.01.01.02.02,0,.01,0,.03.01.04s0,.04,0,.06ZM93.77,7.67s0,.02,0,.02c0,0-.01.01-.02.02s-.03,0-.04.01c-.02,0-.04,0-.07,0-.03,0-.06,0-.07,0s-.03,0-.04-.01c-.01,0-.02-.01-.02-.02s0-.01,0-.02v-1.15h0l-.43,1.16s-.02.02-.05.03c-.03,0-.06.01-.11.01-.04,0-.07,0-.1-.01-.02,0-.04-.02-.04-.03l-.42-1.16h0v1.15s0,.02,0,.02c0,0-.01.01-.02.02-.01,0-.03,0-.04.01-.02,0-.04,0-.07,0-.03,0-.06,0-.08,0s-.03,0-.05-.01c-.01,0-.02-.01-.02-.02,0,0,0-.01,0-.02v-1.32s.01-.07.03-.09c.02-.02.05-.03.08-.03h.2s.06,0,.09,0c.02,0,.05.02.06.03.02.01.03.03.05.06.01.02.03.05.04.09l.32.89.34-.89c.02-.06.05-.11.08-.14.03-.03.08-.05.14-.05h.19s.06.01.08.03.03.05.03.09v1.32Z"/>
    <g>
      <path d="M4.49,19.21h1.89c.23,0,.42-.19.42-.42V5.96c0-.23-.19-.42-.42-.42h-1.89c-.23,0-.42.19-.42.42v12.83c0,.23.19.42.42.42"/>
      <path d="M36.88,5.96v5.05h-8.2v-5.05c0-.23-.19-.42-.42-.42h-1.89c-.23,0-.42.19-.42.42v12.83c0,.23.19.42.42.42h1.89c.23,0,.42-.19.42-.42v-5.05h8.2v5.05c0,.23.19.42.42.42h1.89c.23,0,.42-.19.42-.42V5.96c0-.23-.19-.42-.42-.42h-1.89c-.23,0-.42.19-.42.42"/>
      <path d="M55.6,5.54h-1.89c-.23,0-.42.19-.42.42v10.52h-8.2V5.96c0-.23-.19-.42-.42-.42h-1.89c-.23,0-.42.19-.42.42v10.17c0,.22.09.44.25.6l2.24,2.24c.16.16.37.25.6.25h7.5c.22,0,.44-.09.6-.25l2.24-2.24c.16-.16.25-.37.25-.6V5.96c0-.23-.19-.42-.42-.42"/>
      <path d="M77.9,11.01v-2.73h8.2v2.73s-8.2,0-8.2,0ZM88.59,8.03l-2.24-2.24c-.16-.16-.37-.25-.6-.25h-7.5c-.22,0-.44.09-.6.25l-2.24,2.24c-.16.16-.25.37-.25.6v10.17c0,.23.19.42.42.42h1.89c.23,0,.42-.19.42-.42v-5.05h8.2v5.05c0,.23.19.42.42.42h1.89c.23,0,.42-.19.42-.42v-10.17c0-.22-.09-.44-.25-.6"/>
      <path d="M22.79,5.54h-4.7c-.22,0-.44.09-.6.25l-1.12,1.12-1.11-1.12c-.16-.16-.37-.25-.6-.25h-4.7c-.23,0-.42.19-.42.42v1.89c0,.23.19.42.42.42h5.05v10.52c0,.23.19.42.42.42h1.89c.23,0,.42-.19.42-.42v-10.52h5.05c.23,0,.42-.19.42-.42v-1.89c0-.23-.19-.42-.42-.42"/>
      <path d="M69.7,11.01h-8.2v-2.73h8.2v2.73ZM69.7,13.74h0v2.73h-8.2v-2.73h8.2ZM69.35,5.54h-10.17c-.23,0-.42.19-.42.42v12.83c0,.23.19.42.42.42h10.17c.22,0,.44-.09.6-.25l2.24-2.24c.16-.16.25-.37.25-.6v-2.04c0-.22-.09-.44-.25-.6l-1.12-1.12,1.12-1.12c.16-.16.25-.37.25-.6v-2.04c0-.22-.09-.44-.25-.6l-2.24-2.24c-.16-.16-.37-.25-.6-.25"/>
    </g>
    <polygon points="69.7 13.74 61.49 13.74 61.49 11.01 69.7 11.01 69.7 12.37 69.7 13.74"/>
    <rect x="28.68" y="11.01" width="8.2" height="2.73"/>
    <path d="M22.79,8.27h-5.05l-1.37-1.37-1.36,1.37h-5.05c-.23,0-.42-.19-.42-.42v-1.89c0-.23.19-.42.42-.42h4.7c.22,0,.44.09.6.25l1.11,1.12,1.12-1.12c.16-.16.37-.25.6-.25h4.7c.23,0,.42.19.42.42v1.89c0,.23-.19.42-.42.42"/>
    <rect x="77.9" y="11.01" width="8.2" height="2.73"/>
    <g>
      <path d="M45.09,16.48v2.31c0,.24.19.43.43.43h7.35c.24,0,.43-.19.43-.43v-2.31h-8.2Z"/>
      <path d="M61.49,16.48v2.73h7.77c.24,0,.43-.19.43-.43v-2.31h-8.2Z"/>
      <path d="M69.7,8.27v-2.31c0-.24-.19-.43-.43-.43h-7.77v2.73h8.2Z"/>
      <path d="M86.1,8.27v-2.31c0-.24-.19-.43-.43-.43h-7.35c-.24,0-.43.19-.43.43v2.31h8.2Z"/>
    </g>
    <g>
      <path class="cls-2" d="M4.49,19.21h1.89c.23,0,.42-.19.42-.42V5.96c0-.23-.19-.42-.42-.42h-1.89c-.23,0-.42.19-.42.42v12.83c0,.23.19.42.42.42"/>
      <path class="cls-2" d="M36.88,5.96v5.05h-8.2v-5.05c0-.23-.19-.42-.42-.42h-1.89c-.23,0-.42.19-.42.42v12.83c0,.23.19.42.42.42h1.89c.23,0,.42-.19.42-.42v-5.05h8.2v5.05c0,.23.19.42.42.42h1.89c.23,0,.42-.19.42-.42V5.96c0-.23-.19-.42-.42-.42h-1.89c-.23,0-.42.19-.42.42"/>
      <path class="cls-2" d="M55.6,5.54h-1.89c-.23,0-.42.19-.42.42v10.52h-8.2V5.96c0-.23-.19-.42-.42-.42h-1.89c-.23,0-.42.19-.42.42v10.17c0,.22.09.44.25.6l2.24,2.24c.16.16.37.25.6.25h7.5c.22,0,.44-.09.6-.25l2.24-2.24c.16-.16.25-.37.25-.6V5.96c0-.23-.19-.42-.42-.42"/>
      <path class="cls-2" d="M77.9,11.01v-2.73h8.2v2.73s-8.2,0-8.2,0ZM88.59,8.03l-2.24-2.24c-.16-.16-.37-.25-.6-.25h-7.5c-.22,0-.44.09-.6.25l-2.24,2.24c-.16.16-.25.37-.25.6v10.17c0,.23.19.42.42.42h1.89c.23,0,.42-.19.42-.42v-5.05h8.2v5.05c0,.23.19.42.42.42h1.89c.23,0,.42-.19.42-.42v-10.17c0-.22-.09-.44-.25-.6"/>
      <path class="cls-2" d="M22.79,5.54h-4.7c-.22,0-.44.09-.6.25l-1.12,1.12-1.11-1.12c-.16-.16-.37-.25-.6-.25h-4.7c-.23,0-.42.19-.42.42v1.89c0,.23.19.42.42.42h5.05v10.52c0,.23.19.42.42.42h1.89c.23,0,.42-.19.42-.42v-10.52h5.05c.23,0,.42-.19.42-.42v-1.89c0-.23-.19-.42-.42-.42"/>
      <path class="cls-2" d="M69.7,11.01h-8.2v-2.73h8.2v2.73ZM69.7,13.74h0v2.73h-8.2v-2.73h8.2ZM69.35,5.54h-10.17c-.23,0-.42.19-.42.42v12.83c0,.23.19.42.42.42h10.17c.22,0,.44-.09.6-.25l2.24-2.24c.16-.16.25-.37.25-.6v-2.04c0-.22-.09-.44-.25-.6l-1.12-1.12,1.12-1.12c.16-.16.25-.37.25-.6v-2.04c0-.22-.09-.44-.25-.6l-2.24-2.24c-.16-.16-.37-.25-.6-.25"/>
    </g>
    <polygon class="cls-1" points="69.7 13.74 61.49 13.74 61.49 11.01 69.7 11.01 69.7 12.37 69.7 13.74"/>
    <rect class="cls-1" x="28.68" y="11.01" width="8.2" height="2.73"/>
    <path class="cls-1" d="M22.79,8.27h-5.05l-1.37-1.37-1.36,1.37h-5.05c-.23,0-.42-.19-.42-.42v-1.89c0-.23.19-.42.42-.42h4.7c.22,0,.44.09.6.25l1.11,1.12,1.12-1.12c.16-.16.37-.25.6-.25h4.7c.23,0,.42.19.42.42v1.89c0,.23-.19.42-.42.42"/>
    <rect class="cls-1" x="77.9" y="11.01" width="8.2" height="2.73"/>
    <g>
      <path class="cls-1" d="M45.09,16.48v2.31c0,.24.19.43.43.43h7.35c.24,0,.43-.19.43-.43v-2.31h-8.2Z"/>
      <path class="cls-1" d="M61.49,16.48v2.73h7.77c.24,0,.43-.19.43-.43v-2.31h-8.2Z"/>
      <path class="cls-1" d="M69.7,8.27v-2.31c0-.24-.19-.43-.43-.43h-7.77v2.73h8.2Z"/>
      <path class="cls-1" d="M86.1,8.27v-2.31c0-.24-.19-.43-.43-.43h-7.35c-.24,0-.43.19-.43.43v2.31h8.2Z"/>
    </g>
    <g>
      <path class="cls-2" d="M51.73,26.29c0,.25.02.48.05.68.03.2.09.38.19.52s.23.25.39.34c.17.08.39.12.66.12.48,0,.81-.14,1-.41s.28-.66.28-1.16v-4.36c.06,0,.12-.01.19-.02.06,0,.11-.01.16-.02.05,0,.1-.01.15-.01.1,0,.2.01.31.03s.21.06.3.12c.09.06.17.14.23.25.06.1.09.24.09.42v3.41c0,.14,0,.28-.01.42,0,.14-.02.28-.03.43-.03.29-.1.57-.21.83-.11.26-.28.49-.5.68-.22.19-.49.34-.82.46-.33.11-.71.17-1.16.17s-.83-.05-1.15-.15c-.31-.1-.57-.24-.78-.42-.21-.18-.37-.41-.48-.68-.11-.27-.19-.58-.23-.93-.01-.13-.02-.25-.03-.39,0-.13-.01-.27-.01-.42v-4.18c.06,0,.11-.01.18-.02.06,0,.11-.01.16-.02.05,0,.1-.01.15-.01.1,0,.21.01.32.03s.21.06.3.12c.09.06.17.14.23.25.06.1.09.24.09.42v3.51Z"/>
      <path class="cls-2" d="M60.17,26.28v-1.07h2.54v3.14c-.06.08-.16.16-.29.26-.13.1-.3.19-.51.28s-.45.16-.74.22c-.28.06-.61.09-.98.09-.56,0-1.05-.09-1.47-.28-.41-.18-.76-.44-1.02-.76-.27-.32-.47-.71-.6-1.16s-.19-.94-.19-1.47.07-1.01.2-1.45c.14-.44.34-.83.62-1.16.28-.33.63-.58,1.06-.77.43-.18.93-.28,1.51-.28.29,0,.56.03.83.1.26.07.5.15.71.26.21.1.37.22.5.35.13.13.19.26.19.39,0,.12-.05.25-.15.4-.1.15-.22.28-.36.4-.08-.08-.18-.16-.29-.24s-.23-.16-.37-.23c-.14-.07-.29-.13-.46-.17s-.36-.07-.57-.07c-.38,0-.69.07-.94.21s-.45.32-.6.55c-.15.23-.25.49-.31.78s-.09.6-.09.91c0,.34.03.66.1.96.07.31.17.58.32.81.15.23.35.42.61.57.25.14.57.21.95.21.18,0,.33-.01.46-.04.13-.03.23-.06.31-.09.1-.04.18-.09.24-.15v-1.5h-1.19Z"/>
      <path class="cls-2" d="M68.44,29.03l-.6-1.72h-2.41l-.57,1.72h-1.42l2.43-6.91c.08-.03.2-.07.35-.1.15-.03.31-.05.49-.05.08,0,.16,0,.26.02s.19.04.28.09c.09.05.18.11.26.19.08.08.14.2.19.35l2.25,6.41h-1.48ZM66.66,23.28l-.95,2.98h1.87l-.92-2.98Z"/>
      <path class="cls-2" d="M74.85,26.85v-4.83c.06,0,.11-.01.17-.02.05,0,.1-.01.15-.02.05,0,.1-.01.15-.01.1,0,.2.01.31.03.11.02.21.06.29.12.09.06.16.14.22.25s.09.25.09.42v6.24h-1.21l-2.98-4.61v4.61h-1.37v-7c.07-.01.16-.03.28-.04s.24-.02.36-.02c.22,0,.4.04.52.12.13.08.24.2.33.36l2.7,4.41Z"/>
      <path class="cls-2" d="M83.17,25.4c0,.5-.07.96-.2,1.4-.13.44-.33.82-.61,1.15-.27.33-.62.59-1.03.78-.42.19-.92.29-1.49.29h-2.23v-6.95c.45-.06.83-.09,1.14-.1.32-.01.59-.02.82-.02.7,0,1.28.09,1.74.28.46.19.83.43,1.1.75.28.31.47.68.59,1.1.12.42.17.86.17,1.33ZM81.71,25.42c0-.33-.03-.63-.09-.92s-.17-.53-.32-.75c-.15-.21-.36-.38-.62-.5-.26-.12-.59-.18-.99-.18-.2,0-.41.01-.63.03v4.82h.57c.41,0,.75-.06,1.02-.18.27-.12.48-.29.64-.51.16-.22.27-.48.33-.79.06-.31.09-.64.09-1.01Z"/>
      <path class="cls-2" d="M88.26,29.03l-.6-1.72h-2.41l-.57,1.72h-1.42l2.43-6.91c.08-.03.2-.07.35-.1.15-.03.31-.05.49-.05.08,0,.16,0,.26.02s.19.04.28.09c.09.05.18.11.26.19.08.08.14.2.19.35l2.25,6.41h-1.48ZM86.48,23.28l-.95,2.98h1.87l-.92-2.98Z"/>
    </g>
  </g>
</svg>