<?xml version="1.0" encoding="UTF-8"?>
<svg id="Layer_1" data-name="Layer 1" xmlns="http://www.w3.org/2000/svg" viewBox="0 0 16.38 16.34">
  <defs>
    <style>
      .cls-1 {
        opacity: .13;
      }

      .cls-2 {
        fill: #f1f2f2;
      }

      .cls-3 {
        fill: none;
        opacity: 0;
        stroke: #f1f2f2;
        stroke-miterlimit: 10;
        stroke-width: .15px;
      }
    </style>
  </defs>
  <g>
    <g>
      <g>
        <path class="cls-2" d="M11.01,9.22c-.26-.2-.45-.21-.66-.36-.02-.25-.08-.69-.11-.94.24-.22.36-.27.57-.45,0-.03-.02-.07-.04-.1-.05-.08-.1-.16-.16-.24-.2-.29-.43-.56-.68-.8-.24.22-.43.43-.63.65-.29-.11-.59-.18-.9-.21-.03-.29-.09-.58-.16-.86-.41.06-.82.17-1.2.37.06.27.13.44.23.68-.24.22-.48.43-.67.67-.28-.16-.51-.23-.77-.38-.28.42-.47.89-.47,1.37.3.04.47.03.74.05.04.31.14.63.26.93-.22.21-.34.39-.54.55.16.37.41.69.73.93.19-.21.32-.34.49-.52.26.1.59.24.87.28.09.27.1.43.13.69.43.07.87.04,1.29-.06-.04-.3,0-.47-.07-.73.25-.18.49-.42.66-.65.28.05.39.11.64.19.23-.32.37-.67.45-1.04ZM8.57,9.6c-.19.07-.38.13-.87-.19-.19-.13-.61-.65-.1-1.31.16-.21.44-.33.7-.29.26.04.46.11.61.24.24.21.34.56.27.87-.07.31-.32.57-.62.68Z"/>
        <path class="cls-2" d="M8.53,11.67c-.17,0-.34-.01-.5-.04-.05,0-.09-.05-.1-.1v-.04c-.03-.21-.04-.35-.1-.56-.25-.04-.52-.15-.74-.24h-.01c-.14.14-.26.26-.44.46-.04.04-.11.05-.16.01-.34-.26-.6-.59-.76-.97-.02-.05,0-.1.03-.13.1-.08.18-.17.27-.27.06-.07.13-.14.21-.22-.11-.27-.19-.54-.23-.79-.06,0-.12,0-.18,0-.15,0-.29,0-.47-.03-.06,0-.1-.06-.1-.12,0-.47.17-.95.49-1.44.03-.05.1-.07.15-.04.13.07.25.13.37.18.1.05.2.09.31.15.16-.18.34-.35.53-.52l.04-.03c-.08-.2-.14-.37-.2-.62-.01-.05.01-.11.06-.13.35-.18.77-.31,1.23-.38.06,0,.12.03.13.09.06.26.11.52.15.79.26.03.52.09.76.18.18-.19.36-.39.58-.59.04-.04.11-.04.16,0,.26.24.5.52.7.82.05.08.11.16.16.24.03.04.06.1.06.17,0,.03-.01.06-.04.09-.1.09-.18.15-.26.21-.08.06-.16.12-.26.2,0,.08.02.17.03.26.02.19.05.41.07.57.07.05.14.08.22.11.12.05.25.11.4.23.03.03.05.07.04.12-.09.41-.24.76-.46,1.08-.03.04-.08.06-.13.04-.07-.02-.13-.04-.18-.06-.12-.04-.22-.08-.37-.11-.16.2-.36.41-.58.57.03.13.03.24.04.36,0,.09,0,.19.02.31,0,.06-.03.11-.09.13-.28.07-.56.1-.84.1ZM8.16,11.41c.34.04.69.03,1.06-.05,0-.08-.01-.15-.01-.22,0-.13-.01-.25-.05-.39-.01-.05,0-.1.05-.12.23-.16.47-.4.63-.62.03-.04.07-.05.11-.05.21.04.33.08.47.13.03.01.06.02.1.03.17-.25.29-.53.36-.85-.1-.07-.19-.11-.29-.15-.1-.04-.2-.09-.31-.17-.03-.02-.04-.05-.05-.09-.01-.16-.04-.4-.07-.61-.02-.12-.03-.23-.04-.33,0-.04,0-.07.04-.1.13-.12.23-.19.33-.26.06-.04.12-.09.18-.14,0,0,0,0,0,0-.05-.08-.1-.16-.15-.24-.17-.25-.37-.49-.59-.7-.2.19-.37.38-.54.56-.03.04-.08.05-.13.03-.28-.11-.57-.18-.87-.2-.05,0-.1-.05-.1-.1-.03-.25-.07-.5-.13-.75-.36.06-.69.16-.97.3.05.2.11.35.19.54v.03s.02.1-.02.13l-.09.09c-.21.19-.4.37-.56.57-.04.04-.1.06-.15.03-.13-.07-.26-.13-.38-.19-.1-.04-.19-.09-.3-.14-.24.38-.37.75-.39,1.12.13.01.24.02.35.02.09,0,.18,0,.29.01.06,0,.1.05.11.1.03.28.12.59.25.9.02.04,0,.1-.03.13-.1.09-.17.18-.25.26-.07.08-.15.16-.23.24.13.28.33.53.57.74.16-.17.28-.29.42-.44.03-.03.08-.04.13-.03l.08.03c.23.09.52.21.76.24.05,0,.08.04.1.08.08.25.1.41.12.62ZM8.32,9.77c-.17,0-.37-.06-.68-.26-.12-.08-.33-.29-.38-.62-.05-.28.04-.58.26-.86.2-.25.51-.38.81-.33.31.05.51.13.67.27.27.23.39.63.3.99-.08.35-.35.64-.69.76h0c-.09.03-.19.06-.29.06ZM8.57,9.6h0,0ZM8.21,7.92c-.19,0-.38.1-.51.25-.18.23-.25.46-.21.68.04.23.19.4.28.46.45.29.6.24.77.18.27-.1.48-.33.54-.6.07-.27-.03-.58-.23-.76-.12-.11-.29-.17-.55-.21-.03,0-.05,0-.08,0Z"/>
      </g>
      <g class="cls-1">
        <path class="cls-2" d="M8.92,10.95s-.01,0-.02,0c-.03,0-.08.02-.11.02-.01,0-.02,0-.03,0-.15.02-.3,0-.44-.02-.06,0-.13-.02-.19.01-.24.09-.21.46.03.52.25.04.51.08.77.03.03,0,.07-.01.09-.02.13,0,.27-.05.32-.18.11-.26-.17-.48-.4-.38Z"/>
      </g>
      <g class="cls-1">
        <path class="cls-2" d="M11.02,9.24c-.05-.32-.48-.28-.52.04,0,.02-.01.04-.02.06,0,.02-.02.05-.03.07-.05.11-.13.21-.2.31-.06.08-.15.15-.19.24-.11.24.22.46.4.27.18-.2.35-.42.47-.66.04-.1.11-.21.09-.32Z"/>
      </g>
    </g>
    <g>
      <path class="cls-2" d="M7.15,13.75s0,0-.01,0c-.73-.06-1.49-.12-2.21-.34-.81-.26-1.45-.7-1.78-1.26-.38-.65-.35-1.38-.32-2.09.02-.47.04-.96-.07-1.41-.02-.08.03-.15.11-.17.08-.02.15.03.17.11.11.49.09,1,.07,1.49-.03.7-.06,1.36.29,1.94.29.5.87.9,1.62,1.13.69.21,1.43.27,2.15.33.08,0,.14.07.13.15,0,.07-.07.13-.14.13Z"/>
      <path class="cls-2" d="M8.75,13.34c-.42-.1-.87-.11-1.3-.04-.17.03-.37.08-.44.23-.07.14,0,.32.14.41.14.1.32.13.49.15.39.04.81.02,1.14-.16.09-.05.17-.11.19-.2.03-.13.06-.3-.22-.39Z"/>
      <path class="cls-2" d="M7.97,14.25c-.11,0-.22,0-.34-.02-.18-.02-.39-.06-.55-.18-.21-.15-.29-.4-.18-.59.12-.23.44-.28.55-.3.45-.07.91-.06,1.35.04,0,0,0,0,.01,0,.42.14.34.45.31.56-.03.11-.11.21-.26.29-.24.13-.54.2-.88.2ZM7.99,13.4c-.17,0-.35.01-.52.04-.19.03-.3.08-.34.15-.04.07.02.18.1.23.12.08.28.11.42.13.43.05.79,0,1.06-.15.1-.05.12-.09.12-.11.03-.11.04-.16-.12-.22-.24-.05-.48-.08-.72-.08Z"/>
      <path class="cls-2" d="M3,6.88c.08-1.62,1.17-3.24,2.61-3.97,1.44-.74,3.2-.87,4.74-.4,2.33.71,3.07,2.4,3.56,3.79.12.34.16.85-.19.96-.34.11-.63-.29-.75-.63-.66-1.9-1.76-3.28-4.51-3.28-2.44,0-3.96,1.23-4.37,3.14-.05.24-.08.49-.2.71-.12.22-.35.4-.59.35-.24-.04-.32-.37-.31-.67Z"/>
      <path class="cls-2" d="M3.38,7.69s-.06,0-.1,0c-.28-.05-.44-.37-.42-.81h0c.08-1.64,1.19-3.33,2.69-4.09,1.47-.75,3.24-.9,4.85-.41,2.57.78,3.28,2.8,3.66,3.88.04.13.18.56.02.88-.06.13-.17.22-.3.26-.42.13-.77-.28-.93-.72-.55-1.58-1.5-3.19-4.38-3.19-2.28,0-3.82,1.1-4.23,3.03-.01.05-.02.1-.03.15-.04.2-.08.41-.18.6-.12.22-.36.43-.65.43ZM8.49,2.38c-.98,0-1.97.22-2.82.66-1.41.72-2.46,2.31-2.53,3.86h0c-.01.24.05.49.19.52.18.03.36-.12.45-.28.08-.15.12-.33.15-.52,0-.05.02-.1.03-.15.44-2.07,2.08-3.25,4.51-3.25,3.06,0,4.06,1.71,4.64,3.37.09.25.32.62.58.54.06-.02.1-.06.13-.12.08-.16.04-.45-.03-.66-.51-1.43-1.23-3.02-3.47-3.7-.59-.18-1.2-.27-1.82-.27ZM3,6.88h0,0Z"/>
      <path class="cls-2" d="M2.68,6.74c-.53.35-.94.9-1.12,1.51-.18.61-.22,1.33-.05,1.94.12.46.81,1.7,1.77,1.46.79-.2.57-1.3.59-1.7.04-.54.07-1.08.11-1.62.01-.17-.12-2.25-1.3-1.59Z"/>
      <path class="cls-2" d="M3.02,11.82c-.92,0-1.54-1.15-1.66-1.59-.17-.62-.15-1.36.05-2.02.19-.64.62-1.22,1.18-1.59,0,0,0,0,0,0,.33-.18.62-.19.86-.04.63.4.65,1.75.65,1.76l-.11,1.62c0,.07,0,.16,0,.27.02.51.05,1.37-.7,1.55-.1.02-.19.04-.28.04ZM2.75,6.86c-.5.33-.89.86-1.06,1.43-.18.62-.2,1.3-.05,1.87.1.36.72,1.58,1.6,1.36.49-.12.51-.67.49-1.27,0-.12,0-.22,0-.3l.11-1.62c.01-.17-.09-1.24-.52-1.51-.15-.1-.34-.08-.57.04Z"/>
      <path class="cls-2" d="M13.7,6.74c.53.35.94.9,1.12,1.51.18.61.22,1.33.05,1.94-.12.46-.81,1.7-1.77,1.46-.79-.2-.57-1.3-.59-1.7-.04-.54-.07-1.08-.11-1.62-.01-.17.12-2.25,1.3-1.59Z"/>
      <path class="cls-2" d="M13.35,11.82c-.09,0-.19-.01-.28-.04-.75-.19-.72-1.04-.7-1.55,0-.11,0-.21,0-.27l-.11-1.62s.01-1.36.65-1.76c.25-.16.54-.14.86.04,0,0,0,0,0,0,.56.37.99.95,1.18,1.59.2.66.22,1.4.05,2.02-.12.45-.73,1.59-1.66,1.59ZM13.28,6.75c-.08,0-.15.02-.22.06-.43.27-.53,1.34-.52,1.51l.11,1.62c0,.08,0,.18,0,.3-.02.6,0,1.15.49,1.27.88.22,1.5-.99,1.6-1.36.15-.57.13-1.25-.05-1.87-.17-.58-.56-1.1-1.06-1.43-.13-.07-.25-.11-.35-.11Z"/>
      <path class="cls-2" d="M3.02,11.17s0,0-.01,0c-.02,0-.04-.03-.03-.06.35-1.32.34-2.71-.03-4.03,0-.02,0-.05.03-.06.03,0,.05,0,.06.03.38,1.33.39,2.74.04,4.08,0,.02-.02.03-.05.03Z"/>
      <path class="cls-2" d="M13.44,11.2s-.04-.01-.05-.03c-.36-1.32-.24-2.76-.12-4.03,0-.03.03-.05.05-.04.03,0,.04.03.04.05-.12,1.32-.24,2.69.12,4,0,.02,0,.05-.03.06,0,0,0,0-.01,0Z"/>
      <path class="cls-2" d="M8.74,13.63c-.07-.02-.14,0-.2.02-.25.06-.19.06-.41.06-.24,0-.48-.03-.71-.06-.07,0-.15-.03-.22,0-.23.08-.15.44.09.44.48.05.98.14,1.45-.03.22-.06.22-.38,0-.44Z"/>
    </g>
  </g>
  <rect class="cls-3" width="16.38" height="16.34"/>
</svg>