<?xml version="1.0" encoding="UTF-8"?>
<svg id="Layer_1" data-name="Layer 1" xmlns="http://www.w3.org/2000/svg" viewBox="0 0 51.3 16.34">
  <defs>
    <style>
      .cls-1 {
        fill: #fefefe;
      }

      .cls-2 {
        fill: #b3a7a1;
      }
    </style>
  </defs>
  <g>
    <path class="cls-1" d="M49.13,4.28c-.81,0-1.46-.66-1.46-1.46s.66-1.46,1.46-1.46,1.46.66,1.46,1.46-.66,1.46-1.46,1.46ZM49.13,1.4c-.78,0-1.42.64-1.42,1.42s.64,1.42,1.42,1.42,1.42-.64,1.42-1.42-.64-1.42-1.42-1.42Z"/>
    <path class="cls-1" d="M48.8,2.46s0,.02,0,.03,0,.02,0,.02,0,.01,0,.01c0,0,0,0-.01,0h-.2v.64s0,0,0,.01,0,0-.01,0-.02,0-.03,0c-.01,0-.02,0-.04,0s-.03,0-.04,0-.02,0-.03,0c0,0-.01,0-.01,0,0,0,0,0,0-.01v-.64h-.2s-.01,0-.01,0c0,0,0,0-.01-.01,0,0,0-.01,0-.02s0-.02,0-.03c0-.01,0-.02,0-.03s0-.02,0-.02c0,0,0-.01.01-.01,0,0,0,0,.01,0h.57s0,0,.01,0c0,0,0,0,0,.01,0,0,0,.01,0,.02s0,.02,0,.03ZM49.9,3.18s0,0,0,.01c0,0,0,0-.01,0s-.01,0-.02,0c-.01,0-.02,0-.04,0-.02,0-.03,0-.04,0s-.02,0-.02,0c0,0-.01,0-.01,0s0,0,0-.01v-.63h0l-.24.64s-.01.01-.02.02c-.01,0-.03,0-.06,0-.02,0-.04,0-.05,0-.01,0-.02,0-.02-.02l-.23-.64h0v.63s0,0,0,.01c0,0,0,0-.01,0,0,0-.01,0-.02,0,0,0-.02,0-.04,0-.02,0-.03,0-.04,0s-.02,0-.02,0c0,0-.01,0-.01,0,0,0,0,0,0-.01v-.73s0-.04.02-.05c.01-.01.03-.02.05-.02h.11s.04,0,.05,0c.01,0,.02,0,.03.02,0,0,.02.02.03.03,0,.01.01.03.02.05l.18.49.19-.49s.03-.06.04-.07c.02-.02.04-.02.08-.02h.1s.03,0,.05.02.02.03.02.05v.73Z"/>
  </g>
  <g>
    <path d="M.94,9.5h1.04c.13,0,.23-.1.23-.23V2.24c0-.13-.1-.23-.23-.23H.94c-.13,0-.23.1-.23.23v7.03c0,.13.1.23.23.23"/>
    <path d="M18.71,2.24v2.77h-4.5v-2.77c0-.13-.1-.23-.23-.23h-1.04c-.13,0-.23.1-.23.23v7.03c0,.13.1.23.23.23h1.04c.13,0,.23-.1.23-.23v-2.77h4.5v2.77c0,.13.1.23.23.23h1.04c.13,0,.23-.1.23-.23V2.24c0-.13-.1-.23-.23-.23h-1.04c-.13,0-.23.1-.23.23"/>
    <path d="M28.97,2.01h-1.04c-.13,0-.23.1-.23.23v5.77h-4.5V2.24c0-.13-.1-.23-.23-.23h-1.04c-.13,0-.23.1-.23.23v5.58c0,.12.05.24.14.33l1.23,1.23c.09.09.2.14.33.14h4.12c.12,0,.24-.05.33-.14l1.23-1.23c.09-.09.14-.2.14-.33V2.24c0-.13-.1-.23-.23-.23"/>
    <path d="M41.2,5.01v-1.5h4.5v1.5s-4.5,0-4.5,0ZM47.06,3.37l-1.23-1.23c-.09-.09-.2-.14-.33-.14h-4.12c-.12,0-.24.05-.33.14l-1.23,1.23c-.09.09-.14.2-.14.33v5.57c0,.13.1.23.23.23h1.04c.13,0,.23-.1.23-.23v-2.77h4.5v2.77c0,.13.1.23.23.23h1.04c.13,0,.23-.1.23-.23V3.7c0-.12-.05-.24-.14-.33"/>
    <path d="M10.98,2.01h-2.58c-.12,0-.24.05-.33.14l-.62.61-.61-.61c-.09-.09-.2-.14-.33-.14h-2.58c-.13,0-.23.1-.23.23v1.04c0,.13.1.23.23.23h2.77v5.77c0,.13.1.23.23.23h1.04c.13,0,.23-.1.23-.23V3.51h2.77c.13,0,.23-.1.23-.23v-1.04c0-.13-.1-.23-.23-.23"/>
    <path d="M36.7,5.01h-4.5v-1.5h4.5v1.5ZM36.7,6.51h0v1.5h-4.5v-1.5h4.5ZM36.51,2.01h-5.58c-.13,0-.23.1-.23.23v7.03c0,.13.1.23.23.23h5.58c.12,0,.24-.05.33-.14l1.23-1.23c.09-.09.14-.2.14-.33v-1.12c0-.12-.05-.24-.14-.33l-.61-.61.61-.61c.09-.09.14-.2.14-.33v-1.12c0-.12-.05-.24-.14-.33l-1.23-1.23c-.09-.09-.2-.14-.33-.14"/>
  </g>
  <polygon points="36.7 6.51 32.2 6.51 32.2 5.01 36.7 5.01 36.7 5.76 36.7 6.51"/>
  <rect x="14.21" y="5.01" width="4.5" height="1.5"/>
  <path d="M10.98,3.51h-2.77l-.75-.75-.75.75h-2.77c-.13,0-.23-.1-.23-.23v-1.04c0-.13.1-.23.23-.23h2.58c.12,0,.24.05.33.14l.61.61.62-.61c.09-.09.2-.14.33-.14h2.58c.13,0,.23.1.23.23v1.04c0,.13-.1.23-.23.23"/>
  <rect x="41.2" y="5.01" width="4.5" height="1.5"/>
  <g>
    <path d="M23.2,8v1.26c0,.13.11.24.24.24h4.03c.13,0,.24-.11.24-.24v-1.26h-4.5Z"/>
    <path d="M32.2,8v1.5h4.26c.13,0,.24-.11.24-.24v-1.26h-4.5Z"/>
    <path d="M36.7,3.51v-1.26c0-.13-.11-.24-.24-.24h-4.26v1.5h4.5Z"/>
    <path d="M45.7,3.51v-1.26c0-.13-.11-.24-.24-.24h-4.03c-.13,0-.24.11-.24.24v1.26h4.5Z"/>
  </g>
  <g>
    <path class="cls-1" d="M.94,9.5h1.04c.13,0,.23-.1.23-.23V2.24c0-.13-.1-.23-.23-.23H.94c-.13,0-.23.1-.23.23v7.03c0,.13.1.23.23.23"/>
    <path class="cls-1" d="M18.71,2.24v2.77h-4.5v-2.77c0-.13-.1-.23-.23-.23h-1.04c-.13,0-.23.1-.23.23v7.03c0,.13.1.23.23.23h1.04c.13,0,.23-.1.23-.23v-2.77h4.5v2.77c0,.13.1.23.23.23h1.04c.13,0,.23-.1.23-.23V2.24c0-.13-.1-.23-.23-.23h-1.04c-.13,0-.23.1-.23.23"/>
    <path class="cls-1" d="M28.97,2.01h-1.04c-.13,0-.23.1-.23.23v5.77h-4.5V2.24c0-.13-.1-.23-.23-.23h-1.04c-.13,0-.23.1-.23.23v5.58c0,.12.05.24.14.33l1.23,1.23c.09.09.2.14.33.14h4.12c.12,0,.24-.05.33-.14l1.23-1.23c.09-.09.14-.2.14-.33V2.24c0-.13-.1-.23-.23-.23"/>
    <path class="cls-1" d="M41.2,5.01v-1.5h4.5v1.5s-4.5,0-4.5,0ZM47.06,3.37l-1.23-1.23c-.09-.09-.2-.14-.33-.14h-4.12c-.12,0-.24.05-.33.14l-1.23,1.23c-.09.09-.14.2-.14.33v5.57c0,.13.1.23.23.23h1.04c.13,0,.23-.1.23-.23v-2.77h4.5v2.77c0,.13.1.23.23.23h1.04c.13,0,.23-.1.23-.23V3.7c0-.12-.05-.24-.14-.33"/>
    <path class="cls-1" d="M10.98,2.01h-2.58c-.12,0-.24.05-.33.14l-.62.61-.61-.61c-.09-.09-.2-.14-.33-.14h-2.58c-.13,0-.23.1-.23.23v1.04c0,.13.1.23.23.23h2.77v5.77c0,.13.1.23.23.23h1.04c.13,0,.23-.1.23-.23V3.51h2.77c.13,0,.23-.1.23-.23v-1.04c0-.13-.1-.23-.23-.23"/>
    <path class="cls-1" d="M36.7,5.01h-4.5v-1.5h4.5v1.5ZM36.7,6.51h0v1.5h-4.5v-1.5h4.5ZM36.51,2.01h-5.58c-.13,0-.23.1-.23.23v7.03c0,.13.1.23.23.23h5.58c.12,0,.24-.05.33-.14l1.23-1.23c.09-.09.14-.2.14-.33v-1.12c0-.12-.05-.24-.14-.33l-.61-.61.61-.61c.09-.09.14-.2.14-.33v-1.12c0-.12-.05-.24-.14-.33l-1.23-1.23c-.09-.09-.2-.14-.33-.14"/>
  </g>
  <polygon class="cls-2" points="36.7 6.51 32.2 6.51 32.2 5.01 36.7 5.01 36.7 5.76 36.7 6.51"/>
  <rect class="cls-2" x="14.21" y="5.01" width="4.5" height="1.5"/>
  <path class="cls-2" d="M10.98,3.51h-2.77l-.75-.75-.75.75h-2.77c-.13,0-.23-.1-.23-.23v-1.04c0-.13.1-.23.23-.23h2.58c.12,0,.24.05.33.14l.61.61.62-.61c.09-.09.2-.14.33-.14h2.58c.13,0,.23.1.23.23v1.04c0,.13-.1.23-.23.23"/>
  <rect class="cls-2" x="41.2" y="5.01" width="4.5" height="1.5"/>
  <g>
    <path class="cls-2" d="M23.2,8v1.26c0,.13.11.24.24.24h4.03c.13,0,.24-.11.24-.24v-1.26h-4.5Z"/>
    <path class="cls-2" d="M32.2,8v1.5h4.26c.13,0,.24-.11.24-.24v-1.26h-4.5Z"/>
    <path class="cls-2" d="M36.7,3.51v-1.26c0-.13-.11-.24-.24-.24h-4.26v1.5h4.5Z"/>
    <path class="cls-2" d="M45.7,3.51v-1.26c0-.13-.11-.24-.24-.24h-4.03c-.13,0-.24.11-.24.24v1.26h4.5Z"/>
  </g>
  <g>
    <path class="cls-1" d="M26.85,13.39c0,.14,0,.26.03.37.02.11.05.21.1.28s.12.14.22.18c.09.04.21.07.36.07.26,0,.44-.08.55-.23s.16-.36.16-.63v-2.39s.07,0,.1-.01c.03,0,.06,0,.09-.01.03,0,.06,0,.08,0,.05,0,.11,0,.17.02s.11.03.17.07c.05.03.09.08.13.13.03.06.05.13.05.23v1.87c0,.08,0,.15,0,.23,0,.08,0,.16-.02.24-.02.16-.05.31-.12.46-.06.14-.15.27-.27.37-.12.11-.27.19-.45.25-.18.06-.39.09-.64.09s-.46-.03-.63-.08c-.17-.05-.31-.13-.43-.23-.11-.1-.2-.23-.26-.37-.06-.15-.1-.32-.13-.51,0-.07-.01-.14-.02-.21,0-.07,0-.15,0-.23v-2.29s.06,0,.1-.01c.03,0,.06,0,.09-.01.03,0,.06,0,.08,0,.06,0,.11,0,.17.02s.11.03.17.07c.05.03.09.08.13.13.03.06.05.13.05.23v1.92Z"/>
    <path class="cls-1" d="M31.48,13.38v-.59h1.39v1.72s-.09.09-.16.14c-.07.05-.17.1-.28.15s-.25.09-.4.12c-.15.03-.33.05-.54.05-.31,0-.58-.05-.81-.15-.23-.1-.41-.24-.56-.42-.15-.18-.26-.39-.33-.64s-.11-.52-.11-.81.04-.55.11-.8c.07-.24.19-.45.34-.63.15-.18.35-.32.58-.42.23-.1.51-.15.83-.15.16,0,.31.02.45.05.15.04.27.08.39.14.11.06.2.12.27.19.07.07.1.14.1.22,0,.07-.03.14-.08.22-.06.08-.12.15-.2.22-.05-.04-.1-.09-.16-.13s-.13-.09-.2-.13c-.07-.04-.16-.07-.25-.09s-.2-.04-.31-.04c-.21,0-.38.04-.52.11s-.25.18-.33.3c-.08.12-.14.27-.17.43s-.05.33-.05.5c0,.18.02.36.05.53.04.17.1.32.18.45.08.13.19.23.33.31.14.08.31.12.52.12.1,0,.18,0,.25-.02.07-.02.13-.03.17-.05.05-.02.1-.05.13-.08v-.82h-.65Z"/>
    <path class="cls-1" d="M36.01,14.89l-.33-.94h-1.32l-.32.94h-.78l1.33-3.79s.11-.04.19-.05c.08-.02.17-.03.27-.03.04,0,.09,0,.14.01s.1.02.15.05c.05.02.1.06.14.11.04.05.08.11.11.19l1.23,3.52h-.81ZM35.03,11.73l-.52,1.64h1.03l-.5-1.64Z"/>
    <path class="cls-1" d="M39.53,13.69v-2.65s.06,0,.09-.01c.03,0,.05,0,.08-.01.03,0,.05,0,.08,0,.05,0,.11,0,.17.02.06.01.11.03.16.06.05.03.09.08.12.13s.05.14.05.23v3.42h-.67l-1.63-2.53v2.53h-.75v-3.84s.09-.02.15-.02.13-.01.19-.01c.12,0,.22.02.29.06.07.04.13.11.18.2l1.48,2.42Z"/>
    <path class="cls-1" d="M44.09,12.9c0,.27-.04.53-.11.77-.07.24-.18.45-.33.63-.15.18-.34.32-.57.43-.23.11-.5.16-.82.16h-1.22v-3.81c.24-.03.45-.05.63-.06.17,0,.32-.01.45-.01.38,0,.7.05.95.15.25.1.45.24.6.41.15.17.26.37.32.6.06.23.09.47.09.73ZM43.29,12.91c0-.18-.02-.35-.05-.5s-.09-.29-.18-.41c-.08-.12-.2-.21-.34-.28-.14-.07-.32-.1-.54-.1-.11,0-.23,0-.34.02v2.64h.32c.23,0,.41-.03.56-.1.15-.07.26-.16.35-.28.09-.12.15-.26.18-.43.03-.17.05-.35.05-.56Z"/>
    <path class="cls-1" d="M46.88,14.89l-.33-.94h-1.32l-.32.94h-.78l1.33-3.79s.11-.04.19-.05c.08-.02.17-.03.27-.03.04,0,.09,0,.14.01s.1.02.15.05c.05.02.1.06.14.11.04.05.08.11.11.19l1.23,3.52h-.81ZM45.9,11.73l-.52,1.64h1.03l-.5-1.64Z"/>
  </g>
</svg>