<?xml version="1.0" encoding="UTF-8"?>
<svg id="Layer_1" data-name="Layer 1" xmlns="http://www.w3.org/2000/svg" viewBox="0 0 16.38 16.34">
  <defs>
    <style>
      .cls-1 {
        fill: #68488e;
      }

      .cls-1, .cls-2 {
        fill-rule: evenodd;
      }

      .cls-3 {
        fill: none;
        opacity: 0;
        stroke: #f1f2f2;
        stroke-miterlimit: 10;
        stroke-width: .15px;
      }

      .cls-2 {
        fill: #b3a7a1;
      }
    </style>
  </defs>
  <rect class="cls-3" width="16.38" height="16.34"/>
  <path class="cls-2" d="M4.46,11.9h0c-.47-.47-.71-1.1-.71-1.72s.24-1.25.71-1.72l1.16-1.16c.47-.47,1.1-.71,1.72-.71s1.25.24,1.72.71h0c.21.21.38.46.49.72-.15.1-.32.15-.5.15s-.34-.05-.48-.14c-.04-.04-.07-.09-.11-.13h0c-.31-.31-.71-.46-1.12-.46-.41,0-.81.15-1.12.46l-1.16,1.16c-.31.31-.46.71-.46,1.12s.15.81.46,1.12h0c.31.31.71.46,1.12.46s.81-.15,1.12-.46l.95-.95c.26.07.53.1.8.1.09,0,.17,0,.26-.01-.08.11-.16.21-.26.3l-1.16,1.16c-.47.47-1.1.71-1.72.71s-1.25-.24-1.72-.71h0Z"/>
  <path class="cls-1" d="M11.92,4.44c-.47-.47-1.1-.71-1.72-.71s-1.25.24-1.72.71l-1.16,1.16c-.1.1-.18.2-.26.3.09,0,.17-.01.26-.01.27,0,.54.04.8.1l.95-.95c.31-.31.71-.46,1.12-.46s.81.15,1.12.46h0c.31.31.46.71.46,1.12s-.15.81-.46,1.12l-1.16,1.16c-.31.31-.71.46-1.12.46-.41,0-.81-.15-1.12-.46h0s-.08-.08-.11-.13c-.14-.09-.31-.14-.48-.14-.18,0-.35.05-.5.15.12.26.28.5.49.72h0c.47.47,1.1.71,1.72.71s1.25-.24,1.72-.71l1.16-1.16c.47-.47.71-1.1.71-1.72s-.24-1.25-.71-1.72h0Z"/>
</svg>