<?xml version="1.0" encoding="UTF-8"?>
<svg id="Layer_1" data-name="Layer 1" xmlns="http://www.w3.org/2000/svg" viewBox="0 0 16.38 16.34">
  <defs>
    <style>
      .cls-1 {
        fill: #f1f2f2;
      }

      .cls-2 {
        fill: none;
        opacity: 0;
        stroke: #f1f2f2;
        stroke-miterlimit: 10;
        stroke-width: .15px;
      }
    </style>
  </defs>
  <path class="cls-1" d="M8.19,1.65c-.58,0-1.13.34-1.38.88h-.81c-.36,0-.66.3-.66.66h-.87c-.48,0-.88.4-.88.88v9.86c0,.48.39.88.87.88h7.45c.48,0,.88-.39.88-.88V4.06c0-.48-.39-.88-.87-.88h-.88c0-.36-.3-.66-.66-.66h-.81c-.25-.54-.8-.88-1.38-.88ZM8.19,2.09c.46,0,.88.29,1.03.73.03.09.11.15.21.15h.95c.13,0,.22.09.22.22v1.53c0,.13-.09.22-.22.22h-4.38c-.13,0-.22-.09-.22-.22v-1.53c0-.13.09-.22.22-.22h.95c.09,0,.18-.06.21-.15.15-.44.57-.73,1.03-.73ZM8.18,2.53c-.36,0-.65.3-.65.66s.3.66.66.66.66-.3.66-.66-.3-.66-.67-.66ZM8.19,2.97c.12,0,.22.09.22.22s-.09.22-.22.22-.22-.09-.22-.22.1-.22.22-.22ZM4.47,3.62h.87v.44h-.66c-.12,0-.22.1-.22.22v9.43c0,.12.1.22.22.22h7.01c.12,0,.22-.1.22-.22V4.28c0-.12-.09-.22-.21-.22h-.66v-.44h.88c.25,0,.44.19.44.44v9.86c0,.25-.2.44-.44.44h-7.45c-.25,0-.44-.19-.44-.44V4.06c0-.25.2-.44.44-.44ZM4.9,4.5h.44v.22c0,.36.3.66.66.66h4.38c.36,0,.66-.3.66-.66v-.22h.44v8.99h-6.57V4.5ZM6.87,6.25c-.84,0-1.53.69-1.53,1.53s.69,1.53,1.53,1.53,1.53-.69,1.53-1.53-.69-1.53-1.53-1.53ZM6.87,6.69c.61,0,1.1.49,1.1,1.1s-.49,1.1-1.1,1.1-1.09-.49-1.09-1.1.49-1.1,1.09-1.1ZM9.06,6.69c-.29,0-.29.44,0,.44h1.75c.29,0,.29-.44,0-.44h-1.75ZM6.87,7.13c-.12,0-.22.1-.22.22v.44c0,.12.1.22.22.22h.44c.12,0,.22-.1.22-.22,0-.12-.1-.22-.22-.22h-.22v-.22c0-.12-.1-.22-.22-.22ZM9.06,7.57c-.29,0-.29.44,0,.44h1.75c.29,0,.29-.44,0-.44h-1.75ZM9.06,8.44c-.29,0-.29.44,0,.44h1.75c.29,0,.29-.44,0-.44h-1.75ZM7.75,10.2c-.11,0-.22.07-.22.22v1.75h-.44v-1.31c0-.29-.44-.29-.44,0v1.31h-.44v-.88c0-.29-.44-.29-.44,0v.88h-.22c-.29,0-.29.44,0,.44h2.63c.29,0,.29-.44,0-.44h-.22v-1.75c0-.15-.11-.22-.22-.22ZM9.06,10.42c-.29,0-.29.44,0,.44h1.75c.29,0,.29-.44,0-.44h-1.75ZM9.06,11.29c-.29,0-.29.44,0,.44h1.75c.29,0,.29-.44,0-.44h-1.75ZM9.06,12.17c-.29,0-.29.44,0,.44h1.75c.29,0,.29-.44,0-.44h-1.75"/>
  <rect class="cls-2" width="16.38" height="16.34"/>
</svg>