<?xml version="1.0" encoding="UTF-8"?>
<svg id="Layer_1" data-name="Layer 1" xmlns="http://www.w3.org/2000/svg" viewBox="0 0 16.38 16.34">
  <defs>
    <style>
      .cls-1 {
        fill: #f1f2f2;
      }

      .cls-2 {
        fill: none;
        opacity: 0;
        stroke: #f1f2f2;
        stroke-miterlimit: 10;
        stroke-width: .15px;
      }
    </style>
  </defs>
  <g>
    <path class="cls-1" d="M14.06,12.87h-7.53c-1.24,0-1.24-1.89,0-1.89h7.53c1.24,0,1.24,1.89,0,1.89Z"/>
    <path class="cls-1" d="M14.06,9.12h-7.53c-1.24,0-1.24-1.89,0-1.89h7.53c1.24,0,1.24,1.89,0,1.89Z"/>
    <path class="cls-1" d="M6.53,3.47h7.53c1.24,0,1.24,1.86,0,1.86h-7.53c-1.24,0-1.24-1.86,0-1.86Z"/>
    <path class="cls-1" d="M14.06,5.33h-7.53c-1.24,0-1.24-1.86,0-1.86h7.53c1.24,0,1.24,1.86,0,1.86Z"/>
    <path class="cls-1" d="M14.06,9.12h-7.53c-1.24,0-1.24-1.89,0-1.89h7.53c1.24,0,1.24,1.89,0,1.89Z"/>
    <path class="cls-1" d="M14.06,12.87h-7.53c-1.24,0-1.24-1.89,0-1.89h7.53c1.24,0,1.24,1.89,0,1.89Z"/>
    <g>
      <path class="cls-1" d="M3.9,12.87H1.66c-.37,0-.37-1.89,0-1.89h2.24c.37,0,.37,1.89,0,1.89Z"/>
      <path class="cls-1" d="M3.9,9.12H1.66c-.37,0-.37-1.89,0-1.89h2.24c.37,0,.37,1.89,0,1.89Z"/>
      <path class="cls-1" d="M1.66,3.47h2.24c.37,0,.37,1.86,0,1.86H1.66c-.37,0-.37-1.86,0-1.86Z"/>
      <path class="cls-1" d="M3.9,5.33H1.66c-.37,0-.37-1.86,0-1.86h2.24c.37,0,.37,1.86,0,1.86Z"/>
      <path class="cls-1" d="M3.9,9.12H1.66c-.37,0-.37-1.89,0-1.89h2.24c.37,0,.37,1.89,0,1.89Z"/>
      <path class="cls-1" d="M3.9,12.87H1.66c-.37,0-.37-1.89,0-1.89h2.24c.37,0,.37,1.89,0,1.89Z"/>
    </g>
  </g>
  <rect class="cls-2" x="0" width="16.38" height="16.34"/>
</svg>