<?xml version="1.0" encoding="UTF-8"?>
<svg id="Layer_1" data-name="Layer 1" xmlns="http://www.w3.org/2000/svg" viewBox="0 0 16.38 16.34">
  <defs>
    <style>
      .cls-1 {
        fill: #fff;
      }

      .cls-2 {
        fill: #b3a7a1;
      }

      .cls-3 {
        fill: none;
        opacity: 0;
        stroke: #f1f2f2;
        stroke-miterlimit: 10;
        stroke-width: .15px;
      }

      .cls-4 {
        fill: #68488e;
      }
    </style>
  </defs>
  <rect class="cls-3" width="16.38" height="16.34"/>
  <path class="cls-1" d="M12.02,5.25c.19.22.15.39.34.61-1.41,1.47-3.29,3.55-4.37,4.64,0,0,0,.15-.56-.47,0-.1,3.2-3.43,4.59-4.79Z"/>
  <path class="cls-4" d="M7.95,10.59c-.05,0-.17-.05-.58-.51-.01-.01-.02-.03-.02-.05,0-.03,0-.1,1.79-1.96.87-.91,2.06-2.14,2.82-2.87.01-.01.03-.02.05-.02.02,0,.03,0,.05.02.1.12.14.22.18.33.04.1.07.19.16.29.02.03.02.06,0,.09-.63.66-1.36,1.44-2.07,2.2-.88.94-1.7,1.83-2.3,2.43-.02.03-.05.04-.06.04,0,0-.01,0-.02,0ZM7.5,10.03c.28.32.4.4.44.42.59-.6,1.42-1.49,2.3-2.43.69-.74,1.4-1.51,2.03-2.16-.07-.1-.11-.19-.14-.28-.03-.08-.06-.15-.11-.23-1.34,1.31-4.21,4.31-4.5,4.68Z"/>
  <path class="cls-1" d="M12.58,4.6c-.84.54-1.08.64-1.23.91-.15.27,0,.59.24.8.26.21.55.12.66,0,.28-.28.64-.93.82-1.22-.18-.18-.34-.33-.49-.49Z"/>
  <path class="cls-4" d="M11.92,6.5c-.12,0-.25-.04-.38-.14-.25-.21-.43-.56-.25-.88.13-.23.31-.34.78-.64.13-.08.29-.18.47-.3.03-.02.06-.01.08,0,.08.08.16.16.24.24.08.08.16.16.24.25.02.02.02.05,0,.08-.03.05-.07.12-.12.2-.2.34-.48.8-.71,1.04-.08.08-.22.14-.37.14ZM12.57,4.69c-.16.11-.3.19-.43.27-.47.29-.63.39-.74.59-.14.25.01.54.22.71.24.2.49.09.57,0,.22-.22.5-.7.69-1.01.03-.06.07-.11.09-.16-.07-.07-.14-.14-.21-.21-.07-.07-.14-.14-.21-.21Z"/>
  <path class="cls-4" d="M9,10.03c-.03-.07-.7-.83-1.14-1.21,0,.34-.33.69-.6.91-.27.21-.5.33-.8.49-.77.4-1.5.95-1.91,1.74-.08.14-.37.77.06,1.22.16.16.3.35.51.43.4.14.86-.12,1.21-.42.52-.44.96-.98,1.28-1.58.17-.31.32-.63.52-.92.28-.4.44-.5.88-.64Z"/>
  <path class="cls-1" d="M11.58,11.02c-.84-.7-3.28-3.32-4.23-4.52-.41.29-.8.73-1.14,1.08,1.43,1.29,3.59,3.51,4.41,4.44.32-.3.64-.61.96-1Z"/>
  <path class="cls-1" d="M5.58,4.38c.65.1,1.31.37,1.71.89.55.73.43,1.44-.21,2.06-1.02,1-1.98.66-2.47.05-.29-.36-.63-1.36-.52-1.7.02-.06.09-.12.16-.12.05,0,.1.04.13.08.31.32.64.62.97.91.04.03.08.07.13.08.09.02.17-.04.24-.1.15-.12.29-.25.43-.39.1-.09.2-.21.17-.35-.01-.07-.07-.13-.11-.19-.24-.28-.5-.55-.76-.81-.06-.06-.12-.12-.13-.21-.01-.08.04-.27.25-.23Z"/>
  <path class="cls-1" d="M11.77,13.63c-.54-.1-1.08-.34-1.4-.79-.44-.62-.3-1.21.25-1.72.89-.81,1.68-.5,2.07.03.23.31.47,1.15.37,1.43-.02.05-.08.1-.13.09-.04,0-.08-.04-.11-.07-.25-.27-.51-.54-.78-.79-.03-.03-.07-.06-.11-.07-.07-.02-.14.03-.2.07-.13.1-.25.2-.37.31-.08.08-.17.17-.15.28,0,.06.05.11.09.16.19.24.39.47.6.7.05.05.1.11.1.18,0,.07-.05.22-.22.19Z"/>
  <path d="M9.83,10.57s-.01,0-.02,0l-2.06-2.03s0-.02,0-.03c0,0,.02,0,.03,0l2.06,2.03s0,.02,0,.03c0,0,0,0-.02,0Z"/>
  <path d="M10.15,10.3s-.01,0-.02,0c-.66-.71-1.34-1.4-2.04-2.07,0,0,0-.02,0-.03,0,0,.02,0,.03,0,.69.67,1.38,1.37,2.04,2.07,0,0,0,.02,0,.03,0,0,0,0-.01,0Z"/>
  <path class="cls-4" d="M11.58,11.02c-.84-.7-3.28-3.32-4.23-4.52-.41.29-.8.73-1.14,1.08,1.43,1.29,3.59,3.51,4.41,4.44.32-.3.64-.61.96-1Z"/>
  <path class="cls-2" d="M5.58,4.38c.65.1,1.31.37,1.71.89.55.73.43,1.44-.21,2.06-1.02,1-1.98.66-2.47.05-.29-.36-.63-1.36-.52-1.7.02-.06.09-.12.16-.12.05,0,.1.04.13.08.31.32.64.62.97.91.04.03.08.07.13.08.09.02.17-.04.24-.1.15-.12.29-.25.43-.39.1-.09.2-.21.17-.35-.01-.07-.07-.13-.11-.19-.24-.28-.5-.55-.76-.81-.06-.06-.12-.12-.13-.21-.01-.08.04-.27.25-.23Z"/>
  <path class="cls-2" d="M11.77,13.63c-.54-.1-1.08-.34-1.4-.79-.44-.62-.3-1.21.25-1.72.89-.81,1.68-.5,2.07.03.23.31.47,1.15.37,1.43-.02.05-.08.1-.13.09-.04,0-.08-.04-.11-.07-.25-.27-.51-.54-.78-.79-.03-.03-.07-.06-.11-.07-.07-.02-.14.03-.2.07-.13.1-.25.2-.37.31-.08.08-.17.17-.15.28,0,.06.05.11.09.16.19.24.39.47.6.7.05.05.1.11.1.18,0,.07-.05.22-.22.19Z"/>
  <path class="cls-2" d="M8.78,9.89c-.08-.08-.17-.03-.24.03-.07.05-.15.1-.22.16-.21.16-.38.37-.51.6-.21.39-.39.79-.63,1.15-.23.39-.39.61-.7.91-.19.17-.32.28-.6.42,0,0,0,0,0,0-.07.03-.14.05-.21.07-.13.03-.11.03-.2.04-.15,0-.13-.02-.3-.03-.15.01-.16.24-.02.27.11.02.22.04.33.04.16,0,.31-.05.46-.1.24-.09.44-.25.64-.41.71-.58,1.09-1.43,1.52-2.22.15-.27.23-.39.47-.58.02-.02.12-.09.15-.1.03-.02.07-.04.09-.07.05-.05.04-.14-.01-.19Z"/>
  <path class="cls-4" d="M11.72,6.37c-.1-.07-.05-.01-.14-.09-.07-.06-.13-.13-.13-.14-.04-.04-.06-.1-.1-.14-.11-.09-.26.05-.19.17.11.16.12.19.26.33.06.05.12.1.2.11.12,0,.18-.15.1-.24Z"/>
  <path class="cls-2" d="M10.34,11.34c-.1-.1-.18-.21-.28-.31-.17-.17-.33-.34-.48-.51-.16-.19-.31-.37-.49-.54-.14-.15-.33-.3-.4-.36-.2-.19-.39-.39-.59-.59-.34-.36-.67-.73-1.03-1.06-.12-.1-.23-.21-.35-.3-.04-.03-.08-.08-.14-.08-.15-.03-.23.19-.09.27.31.22.76.66,1.09,1.03.23.24.47.48.69.73.08.08.15.17.23.25.14.12.28.25.41.39.33.35.64.72.98,1.06.07.07.14.15.21.23,0,0,0,0,0,0,.04.07.13.1.2.06.12-.04.13-.21.04-.28Z"/>
</svg>