<?xml version="1.0" encoding="UTF-8"?>
<svg id="Layer_1" data-name="Layer 1" xmlns="http://www.w3.org/2000/svg" viewBox="0 0 16.38 16.34">
  <defs>
    <style>
      .cls-1 {
        fill: #f1f2f2;
      }

      .cls-2 {
        fill: none;
        opacity: 0;
        stroke: #f1f2f2;
        stroke-miterlimit: 10;
        stroke-width: .15px;
      }
    </style>
  </defs>
  <path class="cls-1" d="M4.94,2.42c.87.03,1.77-.05,2.64,0,.31.02.53.14.69.4.06.1.18.39.26.44.02.01.03.02.05.02h2.85c.36-.01.7.19.74.57v4.72c-.06.52-.46.89-.98.92-.85.04-1.73-.03-2.58,0-.09,0-.13.04-.14.14-.03.32.02.69,0,1.01.01.07.05.11.11.13.08.03.16.05.24.09.36.16.66.45.82.81.04.09.08.25.12.32.02.04.06.05.1.06h1.41c.1-.02.14-.17.18-.25.59-1.02,2.17-.49,2,.69-.14.97-1.42,1.26-1.96.44-.05-.08-.09-.19-.14-.25-.05-.06-.12-.06-.19-.07-.36-.02-.83-.01-1.19,0-.06,0-.12-.01-.17.02-.08.05-.11.23-.15.32-.55,1.3-2.41,1.29-2.96,0-.03-.08-.06-.22-.1-.28-.02-.03-.05-.05-.09-.06s-.09-.01-.13-.01c-.35-.02-.82-.02-1.18,0-.08,0-.16,0-.22.08-.06.08-.09.2-.17.3-.68.88-2.07.3-1.93-.8.13-.98,1.43-1.27,1.97-.44.06.1.11.28.23.3h1.4s.09-.03.11-.07c.05-.08.08-.24.12-.34.16-.34.46-.63.81-.78.08-.04.28-.08.33-.14.01-.02.02-.04.03-.06v-1.05c0-.07-.05-.11-.13-.12-.85-.03-1.71.04-2.56,0-.55-.02-.94-.38-1.01-.93V3.16c.04-.4.33-.7.73-.74ZM4.88,4.8s-.08.03-.09.07v3.63c.01.22.19.38.4.41h6c.25-.03.42-.24.42-.49v-3.46c0-.1-.03-.16-.14-.16h-6.59ZM8.13,11.31c-.82.06-1.26.99-.75,1.65.62.81,1.91.29,1.83-.73-.04-.52-.55-.96-1.07-.92ZM3.94,11.86c-.44.05-.59.63-.2.87s.88-.21.64-.62c-.08-.14-.28-.26-.44-.24ZM12.35,11.86c-.39.05-.57.54-.27.82.39.34.94-.09.73-.55-.08-.16-.28-.29-.46-.27Z"/>
  <rect class="cls-2" x="0" width="16.38" height="16.34"/>
</svg>