<?xml version="1.0" encoding="UTF-8"?>
<svg id="Layer_1" data-name="Layer 1" xmlns="http://www.w3.org/2000/svg" viewBox="0 0 16.38 16.34">
  <defs>
    <style>
      .cls-1 {
        fill: #f1f2f2;
      }

      .cls-2 {
        fill: none;
        opacity: 0;
        stroke: #f1f2f2;
        stroke-miterlimit: 10;
        stroke-width: .15px;
      }
    </style>
  </defs>
  <g>
    <path class="cls-1" d="M6.88,6.22c.64-.02,1.29,0,1.94,0,.47,0,.91-.05,1.35.14.4.17.7.47.92.84.1.17.07.22.06.4-.02,1.79,0,3.59,0,5.39,0,.25,0,.36-.13.58-.15.24-.33.37-.61.41-1.18.03-2.37,0-3.56.01-.5,0-1.09.1-1.44-.33-.13-.16-.16-.39-.21-.59v-5.69c.27-.68.93-1.15,1.67-1.17ZM7.12,8.62c-.29,0-.45,0-.7.18-.19.13-.29.36-.37.57.02.95-.04,1.91,0,2.86,0,.09-.01.15.02.24.12.35.41.59.78.63.85-.03,1.71.04,2.56,0,.51-.02.84-.31.94-.8v-2.83c-.07-.42-.37-.79-.82-.83-.16-.02-.35-.01-.52-.01-.64,0-1.28,0-1.92,0Z"/>
    <path class="cls-1" d="M7.34,1.25s.05,0,.07,0c.53.01,1.07,0,1.6,0,.04,0,.11.01.14.03.1.07,0,.23.16.29.21.08.29.07.47.23.25.23.28.45.29.78.03.8-.05,1.61-.02,2.41,0,.23.2.27.36.38.21.15.42.41.52.64.02.03.09.18.05.21-.04.03-.19-.11-.23-.14-.32-.2-.74-.37-1.11-.39-.97-.05-1.97.04-2.95,0-.34.03-.66.15-.95.32-.05.03-.3.21-.32.21-.01,0-.02,0-.03-.01-.02-.03.02-.13.04-.16.15-.31.42-.62.71-.8.08-.05.15-.05.22-.14.08-.1.04-.16.04-.27,0-.61.01-1.22.01-1.83,0-.53-.1-1.02.43-1.33.08-.05.23-.08.29-.13.12-.09.02-.28.2-.31ZM9.28,2.01c-.13.02-.05.19-.15.24-.07.04-.15,0-.22,0-.48,0-.97,0-1.45.01-.06,0-.14,0-.19-.02-.09-.05-.02-.21-.16-.21-.1,0-.22.19-.26.27-.03.07-.04.13-.05.2-.05.66.04,1.38,0,2.05,0,.14-.08.4.12.42.8,0,1.61-.01,2.41,0,.08,0,.24.05.3-.04.04-.06.03-.24.03-.32,0-.6,0-1.2-.01-1.79,0-.2.03-.42-.07-.6-.05-.08-.21-.23-.31-.22Z"/>
    <path class="cls-1" d="M9.91,14.5c.07-.01.28-.01.35,0,.09,0,.12.05.12.13,0,.06,0,.36,0,.4-.02.04-.06.05-.09.06-.05,0-.4,0-.43,0-.04-.02-.06-.08-.07-.12,0-.08,0-.31.01-.39.01-.05.06-.07.1-.08Z"/>
    <path class="cls-1" d="M6.12,14.5c.06-.01.3-.01.36,0s.12.04.12.11c.01.09,0,.29,0,.38,0,.07-.04.09-.1.1-.08,0-.29,0-.37,0-.05,0-.1-.04-.11-.09-.02-.11-.01-.28,0-.39,0-.05.04-.1.09-.11Z"/>
    <path class="cls-1" d="M7.2,9.13c.59-.02,1.24,0,1.83,0,.3,0,.74-.05.79.35,0,.76.01,1.53,0,2.29,0,.15.02.38,0,.52-.03.21-.37.32-.55.32-.76,0-1.52-.03-2.28-.01-.21-.03-.39-.19-.43-.4v-2.68c.02-.18.13-.31.3-.36.08-.03.24-.02.34-.03ZM8.11,9.3c-.54.08-.73.85-.22,1.14.25.14.42.11.65-.03.11-.06.17-.15.21-.26.09-.23.09-.32-.04-.54s-.37-.35-.61-.31Z"/>
    <path class="cls-1" d="M8.19,9.89c.07-.02.09.07.02.07-.05,0-.07-.06-.02-.07Z"/>
  </g>
  <rect class="cls-2" x="0" width="16.38" height="16.34"/>
</svg>