<?xml version="1.0" encoding="UTF-8"?>
<svg id="Layer_1" data-name="Layer 1" xmlns="http://www.w3.org/2000/svg" viewBox="0 0 16.38 16.34">
  <defs>
    <style>
      .cls-1 {
        fill: #f1f2f2;
      }

      .cls-2 {
        fill: none;
        opacity: 0;
        stroke: #f1f2f2;
        stroke-miterlimit: 10;
        stroke-width: .15px;
      }
    </style>
  </defs>
  <g>
    <path class="cls-1" d="M9.83,14.43c-.18.27-.42.48-.69.62-.48.25-1.05.26-1.52,0-.16-.09-.31-.21-.44-.36l2.65-.25"/>
    <path class="cls-1" d="M7.17,7.78c-.2.2-.3.45-.31.71-.01.26.07.53.25.75.05.07.15.08.22.02.07-.05.08-.15.02-.22-.13-.16-.19-.35-.18-.54,0-.18.08-.36.22-.5.06-.06.06-.16,0-.22-.06-.06-.16-.06-.22,0M10.64,8.9c-.06.08-.15.16-.28.24-.06.04-.09.1-.07.17.03.2-.03.39-.12.52-.08.11-.18.19-.28.22-.06-.2-.22-.4-.54-.56h0c-.08-.04-.17,0-.21.07-.04.08,0,.17.07.21.28.15.39.31.39.45,0,.13-.08.25-.2.33-.12.08-.27.12-.39.09-.14-.04-.26-.18-.31-.46,0-.03-.01-.05-.03-.07v-3.26c.08-.23.21-.34.34-.37.09-.02.19,0,.27.04.09.04.16.11.21.2.06.12.06.27-.06.42-.06.07-.05.17.02.22.07.06.17.05.22-.02.08-.09.13-.19.15-.28.05,0,.11,0,.16.02.11.04.21.11.29.2.08.09.14.21.15.34,0,.08,0,.17-.03.26-.02.07,0,.14.06.18.09.07.16.15.21.23.06.09.08.2.08.3,0,.1-.04.2-.11.3M8.34,10.13s-.02.03-.02.05c-.08.31-.22.45-.38.48-.12.03-.25-.01-.35-.09-.1-.08-.17-.19-.17-.31,0-.15.11-.33.41-.48.08-.04.11-.13.07-.21-.04-.08-.13-.11-.21-.07-.32.17-.49.37-.56.57-.04,0-.08,0-.13-.02-.1-.04-.2-.1-.28-.2-.08-.09-.14-.2-.15-.33-.01-.09,0-.18.03-.28.02-.07,0-.14-.06-.18-.08-.06-.15-.13-.2-.21-.06-.09-.09-.2-.09-.3,0-.1.04-.21.11-.31.06-.08.15-.16.27-.24.05-.03.08-.1.07-.16,0-.05,0-.1,0-.14,0-.17.07-.32.16-.43.08-.1.18-.16.28-.18.04.12.11.24.24.36.06.06.16.06.22,0,.06-.06.05-.16,0-.22-.16-.15-.19-.3-.14-.43.04-.1.11-.18.2-.23.09-.05.2-.08.3-.06.15.03.3.17.38.48h0s0,0,0,0h0s0,0,0,0h0s0,0,0,0h0s0,0,0,0h0s0,0,0,0h0s0,0,0,0h0s0,0,0,0h0s0,0,0,0h0s0,.01,0,.01h0s0,0,0,0h0v3.1ZM10.93,8.15c-.06-.09-.13-.18-.22-.26.02-.1.02-.19.01-.28-.02-.2-.11-.37-.22-.51-.12-.14-.27-.24-.43-.3-.08-.03-.17-.04-.25-.04-.01-.06-.04-.12-.07-.18-.08-.14-.2-.26-.34-.33-.15-.07-.31-.1-.48-.07-.17.04-.34.14-.47.34-.12-.2-.29-.3-.47-.34-.18-.04-.37,0-.52.09-.15.09-.28.23-.34.4-.01.03-.02.06-.03.09h0c-.19.03-.37.14-.51.3-.13.16-.22.38-.23.62,0,.03,0,.06,0,.1-.11.08-.21.17-.27.26-.12.16-.17.33-.17.5,0,.17.05.33.14.47.05.09.12.16.2.23-.02.11-.03.21-.01.31.03.19.11.36.23.49.12.13.27.24.42.29.07.02.14.04.21.04.04.17.14.32.28.43.17.13.4.2.61.15.18-.04.36-.15.48-.37.1.2.26.31.42.36.23.06.47,0,.66-.14.15-.11.27-.27.31-.44.2-.04.4-.17.53-.36.12-.17.19-.4.18-.65.12-.08.21-.17.28-.27.11-.15.17-.31.17-.48,0-.16-.04-.32-.12-.46"/>
    <path class="cls-1" d="M7.39,8.01c-.14.14-.21.31-.22.5,0,.19.05.38.18.54.05.07.04.17-.02.22-.07.05-.17.04-.22-.02-.18-.22-.26-.48-.25-.75.01-.26.12-.51.31-.71.06-.06.16-.06.22,0,.06.06.06.16,0,.22"/>
    <path class="cls-1" d="M7.39,8.01c-.14.14-.21.31-.22.5,0,.19.05.38.18.54.05.07.04.17-.02.22-.07.05-.17.04-.22-.02-.18-.22-.26-.48-.25-.75.01-.26.12-.51.31-.71.06-.06.16-.06.22,0,.06.06.06.16,0,.22"/>
    <path class="cls-1" d="M7.17,7.78c-.2.2-.3.45-.31.71-.01.26.07.53.25.75.05.07.15.08.22.02.07-.05.08-.15.02-.22-.13-.16-.19-.35-.18-.54,0-.18.08-.36.22-.5.06-.06.06-.16,0-.22-.06-.06-.16-.06-.22,0M10.64,8.9c-.06.08-.15.16-.28.24-.06.04-.09.1-.07.17.03.2-.03.39-.12.52-.08.11-.18.19-.28.22-.06-.2-.22-.4-.54-.56h0c-.08-.04-.17,0-.21.07-.04.08,0,.17.07.21.28.15.39.31.39.45,0,.13-.08.25-.2.33-.12.08-.27.12-.39.09-.14-.04-.26-.18-.31-.46,0-.03-.01-.05-.03-.07v-3.26c.08-.23.21-.34.34-.37.09-.02.19,0,.27.04.09.04.16.11.21.2.06.12.06.27-.06.42-.06.07-.05.17.02.22.07.06.17.05.22-.02.08-.09.13-.19.15-.28.05,0,.11,0,.16.02.11.04.21.11.29.2.08.09.14.21.15.34,0,.08,0,.17-.03.26-.02.07,0,.14.06.18.09.07.16.15.21.23.06.09.08.2.08.3,0,.1-.04.2-.11.3M8.34,10.13s-.02.03-.02.05c-.08.31-.22.45-.38.48-.12.03-.25-.01-.35-.09-.1-.08-.17-.19-.17-.31,0-.15.11-.33.41-.48.08-.04.11-.13.07-.21-.04-.08-.13-.11-.21-.07-.32.17-.49.37-.56.57-.04,0-.08,0-.13-.02-.1-.04-.2-.1-.28-.2-.08-.09-.14-.2-.15-.33-.01-.09,0-.18.03-.28.02-.07,0-.14-.06-.18-.08-.06-.15-.13-.2-.21-.06-.09-.09-.2-.09-.3,0-.1.04-.21.11-.31.06-.08.15-.16.27-.24.05-.03.08-.1.07-.16,0-.05,0-.1,0-.14,0-.17.07-.32.16-.43.08-.1.18-.16.28-.18.04.12.11.24.24.36.06.06.16.06.22,0,.06-.06.05-.16,0-.22-.16-.15-.19-.3-.14-.43.04-.1.11-.18.2-.23.09-.05.2-.08.3-.06.15.03.3.17.38.48h0s0,0,0,0h0s0,0,0,0h0s0,0,0,0h0s0,0,0,0h0s0,0,0,0h0s0,0,0,0h0s0,0,0,0h0s0,0,0,0h0s0,.01,0,.01h0s0,0,0,0h0v3.1ZM10.93,8.15c-.06-.09-.13-.18-.22-.26.02-.1.02-.19.01-.28-.02-.2-.11-.37-.22-.51-.12-.14-.27-.24-.43-.3-.08-.03-.17-.04-.25-.04-.01-.06-.04-.12-.07-.18-.08-.14-.2-.26-.34-.33-.15-.07-.31-.1-.48-.07-.17.04-.34.14-.47.34-.12-.2-.29-.3-.47-.34-.18-.04-.37,0-.52.09-.15.09-.28.23-.34.4-.01.03-.02.06-.03.09h0c-.19.03-.37.14-.51.3-.13.16-.22.38-.23.62,0,.03,0,.06,0,.1-.11.08-.21.17-.27.26-.12.16-.17.33-.17.5,0,.17.05.33.14.47.05.09.12.16.2.23-.02.11-.03.21-.01.31.03.19.11.36.23.49.12.13.27.24.42.29.07.02.14.04.21.04.04.17.14.32.28.43.17.13.4.2.61.15.18-.04.36-.15.48-.37.1.2.26.31.42.36.23.06.47,0,.66-.14.15-.11.27-.27.31-.44.2-.04.4-.17.53-.36.12-.17.19-.4.18-.65.12-.08.21-.17.28-.27.11-.15.17-.31.17-.48,0-.16-.04-.32-.12-.46"/>
    <path class="cls-1" d="M11.69,8.62c0,.21-.03.43-.09.65-.05.21-.13.43-.23.65-.22.46-.61.95-1,1.43-.19.23-.37.46-.54.69l-2.88.27c-.07-.21-.15-.42-.24-.61-.12-.24-.25-.47-.39-.66-.14-.17-.28-.35-.4-.55-.13-.19-.24-.4-.35-.65-.1-.25-.17-.5-.22-.75-.04-.25-.06-.5-.05-.76.02-.26.06-.52.15-.77.08-.26.2-.53.36-.8h0c.2-.3.42-.54.67-.73.26-.21.55-.36.86-.46h.02c.23-.09.48-.14.73-.16.26-.02.53-.01.79.02.26.04.51.1.75.2.24.09.47.21.69.35.28.19.53.41.73.67.19.25.35.53.46.83h0c.06.17.11.36.14.54.03.19.05.39.04.59M12.13,7.95c-.04-.22-.09-.43-.16-.62h0c-.12-.36-.31-.68-.53-.97-.24-.3-.52-.56-.84-.77-.24-.16-.51-.3-.78-.4-.28-.11-.56-.18-.85-.22-.3-.04-.6-.05-.9-.03-.28.02-.57.08-.84.18h-.02c-.36.13-.7.31-.99.55-.29.23-.55.51-.78.84v.02c-.19.3-.32.6-.42.9-.1.3-.15.6-.17.89h0c-.02.3,0,.59.05.87.05.28.13.57.25.85.11.28.25.52.39.74.14.21.28.4.43.58.12.16.24.35.34.57.11.23.2.48.27.73.03.11.14.19.25.17.68-.06,2.54-.33,3.09-.29.09.02.2-.01.25-.09.18-.25.39-.51.6-.77.41-.5.82-1.01,1.06-1.53.12-.25.2-.5.26-.74.06-.26.1-.51.1-.76,0-.23,0-.46-.05-.68"/>
    <path class="cls-1" d="M7.17,7.78c-.2.2-.3.45-.31.71-.01.26.07.53.25.75.05.07.15.08.22.02.07-.05.08-.15.02-.22-.13-.16-.19-.35-.18-.54,0-.18.08-.36.22-.5.06-.06.06-.16,0-.22-.06-.06-.16-.06-.22,0M10.64,8.9c-.06.08-.15.16-.28.24-.06.04-.09.1-.07.17.03.2-.03.39-.12.52-.08.11-.18.19-.28.22-.06-.2-.22-.4-.54-.56h0c-.08-.04-.17,0-.21.07-.04.08,0,.17.07.21.28.15.39.31.39.45,0,.13-.08.25-.2.33-.12.08-.27.12-.39.09-.14-.04-.26-.18-.31-.46,0-.03-.01-.05-.03-.07v-3.26c.08-.23.21-.34.34-.37.09-.02.19,0,.27.04.09.04.16.11.21.2.06.12.06.27-.06.42-.06.07-.05.17.02.22.07.06.17.05.22-.02.08-.09.13-.19.15-.28.05,0,.11,0,.16.02.11.04.21.11.29.2.08.09.14.21.15.34,0,.08,0,.17-.03.26-.02.07,0,.14.06.18.09.07.16.15.21.23.06.09.08.2.08.3,0,.1-.04.2-.11.3M8.34,10.13s-.02.03-.02.05c-.08.31-.22.45-.38.48-.12.03-.25-.01-.35-.09-.1-.08-.17-.19-.17-.31,0-.15.11-.33.41-.48.08-.04.11-.13.07-.21-.04-.08-.13-.11-.21-.07-.32.17-.49.37-.56.57-.04,0-.08,0-.13-.02-.1-.04-.2-.1-.28-.2-.08-.09-.14-.2-.15-.33-.01-.09,0-.18.03-.28.02-.07,0-.14-.06-.18-.08-.06-.15-.13-.2-.21-.06-.09-.09-.2-.09-.3,0-.1.04-.21.11-.31.06-.08.15-.16.27-.24.05-.03.08-.1.07-.16,0-.05,0-.1,0-.14,0-.17.07-.32.16-.43.08-.1.18-.16.28-.18.04.12.11.24.24.36.06.06.16.06.22,0,.06-.06.05-.16,0-.22-.16-.15-.19-.3-.14-.43.04-.1.11-.18.2-.23.09-.05.2-.08.3-.06.15.03.3.17.38.48h0s0,0,0,0h0s0,0,0,0h0s0,0,0,0h0s0,0,0,0h0s0,0,0,0h0s0,0,0,0h0s0,0,0,0h0s0,0,0,0h0s0,.01,0,.01h0s0,0,0,0h0v3.1ZM10.93,8.15c-.06-.09-.13-.18-.22-.26.02-.1.02-.19.01-.28-.02-.2-.11-.37-.22-.51-.12-.14-.27-.24-.43-.3-.08-.03-.17-.04-.25-.04-.01-.06-.04-.12-.07-.18-.08-.14-.2-.26-.34-.33-.15-.07-.31-.1-.48-.07-.17.04-.34.14-.47.34-.12-.2-.29-.3-.47-.34-.18-.04-.37,0-.52.09-.15.09-.28.23-.34.4-.01.03-.02.06-.03.09h0c-.19.03-.37.14-.51.3-.13.16-.22.38-.23.62,0,.03,0,.06,0,.1-.11.08-.21.17-.27.26-.12.16-.17.33-.17.5,0,.17.05.33.14.47.05.09.12.16.2.23-.02.11-.03.21-.01.31.03.19.11.36.23.49.12.13.27.24.42.29.07.02.14.04.21.04.04.17.14.32.28.43.17.13.4.2.61.15.18-.04.36-.15.48-.37.1.2.26.31.42.36.23.06.47,0,.66-.14.15-.11.27-.27.31-.44.2-.04.4-.17.53-.36.12-.17.19-.4.18-.65.12-.08.21-.17.28-.27.11-.15.17-.31.17-.48,0-.16-.04-.32-.12-.46"/>
    <path class="cls-1" d="M8.74,2.67c0-.12.07-.22.15-.29.08-.07.19-.11.3-.1h0s.02,0,.03,0c.11.01.2.07.26.14.07.08.11.19.1.3h0s0,.02,0,.02l-.07.9h0s0,.02,0,.03c-.01.11-.07.2-.14.26-.08.07-.19.11-.3.1h0s-.02,0-.03,0c-.11-.01-.2-.07-.26-.14-.07-.08-.11-.19-.1-.3h0s0-.02,0-.02l.07-.91"/>
    <path class="cls-1" d="M3.99,3.99c-.08-.08-.12-.19-.12-.3,0-.11.05-.22.13-.3.08-.08.19-.12.3-.12.11,0,.22.05.3.13l.64.67c.08.08.12.19.12.3,0,.11-.05.22-.13.3-.08.08-.19.12-.3.12-.11,0-.22-.05-.3-.13l-.64-.67"/>
    <path class="cls-1" d="M2.62,8.59c-.11,0-.22-.05-.29-.13-.08-.08-.12-.19-.12-.3,0-.12.05-.22.13-.3.08-.07.19-.12.3-.12l.93.02c.12,0,.22.05.3.13.07.08.12.19.12.3h0s0,0,0,0v.02c-.01.11-.06.2-.13.28-.08.07-.19.12-.3.12h0s0,0,0,0h0s-.92-.02-.92-.02"/>
    <path class="cls-1" d="M14.37,7.92h.01c.11,0,.21.04.29.11.08.07.13.18.14.29h0s0,.02,0,.02c0,.11-.04.21-.11.29-.07.08-.18.13-.29.14l-.93.05c-.12,0-.23-.04-.3-.11-.08-.07-.13-.18-.14-.29,0-.11.03-.22.11-.31.07-.08.18-.13.29-.14.31-.02.62-.04.93-.05"/>
    <path class="cls-1" d="M12.74,4.14c.07-.09.17-.15.28-.16.11-.01.22.01.31.08h0c.09.07.15.17.16.28.01.11-.01.22-.08.31l-.56.74c-.07.09-.17.15-.28.17-.11.01-.22-.01-.31-.08-.09-.07-.15-.17-.17-.28-.01-.11.01-.22.08-.31l.56-.74"/>
    <path class="cls-1" d="M10.16,12.97v.17s0,.06,0,.06c0,.11,0,.23-.01.34l-.07.25-3.21.3-.05-.13-.1-.52v-.15s3.44-.32,3.44-.32"/>
  </g>
  <rect class="cls-2" width="16.38" height="16.34"/>
</svg>